<?xml version="1.0" encoding="utf-8"?>
<!-- Generator: Adobe Illustrator 20.1.0, SVG Export Plug-In . SVG Version: 6.00 Build 0)  -->
<!DOCTYPE svg PUBLIC "-//W3C//DTD SVG 1.1//EN" "http://www.w3.org/Graphics/SVG/1.1/DTD/svg11.dtd">
<svg version="1.1" id="Layer_1" xmlns:sketch="http://www.bohemiancoding.com/sketch/ns"
	 xmlns="http://www.w3.org/2000/svg" xmlns:xlink="http://www.w3.org/1999/xlink" x="0px" y="0px" viewBox="0 0 128 19"
	 style="enable-background:new 0 0 128 19;" xml:space="preserve">
<style type="text/css">
	.st0{fill:#FFFFFF;}
	.st1{fill:#F4F4F4;}
	.st2{display:none;opacity:0.3014;fill:#D8D8D8;enable-background:new    ;}
	.st3{fill:none;}
	.st4{fill:url(#Mask-Copy-2_2_);}
	.st5{fill:#FFFFFF;stroke:#27E227;stroke-width:4;stroke-miterlimit:10;}
</style>
<g>
	<rect id="path-1" y="2" class="st0" width="97" height="15"/>
</g>
<title>Review Condition</title>
<g id="Layer_2">
	<path class="st1" d="M120.6,17h-107c-0.8,0-1.4-0.6-1.4-1.4V3.4c0-0.8,0.6-1.4,1.4-1.4h107c4.1,0,7.4,3.3,7.4,7.4v0.3
		C128,13.7,124.7,17,120.6,17z"/>
</g>
<desc>Created with Sketch.</desc>
<g id="Mobile" sketch:type="MSPage">
	<g id="Mockup---Condition-Review" transform="translate(-349.000000, -751.000000)" sketch:type="MSArtboardGroup">
		<g id="Review" transform="translate(124.000000, 79.000000)" sketch:type="MSLayerGroup">
			<g id="Group" transform="translate(0.000000, 203.000000)">
				<g id="Icons" transform="translate(225.000000, 2.769231)">
					<g id="Review-Condition" transform="translate(0.000000, 466.230769)">
						<path id="Mask-Copy-2" sketch:type="MSShapeGroup" class="st2" d="M94,2L94,2c35.3,0,34,3.4,34,7.5l0,0c0,4.1,1.3,7.5-34,7.5
							l0,0C58.7,17,0,13.6,0,9.5l0,0C0,5.4,58.7,2,94,2z"/>
						<g id="Foreground-_x2B_">
							<g id="Mask" sketch:type="MSShapeGroup">
								<rect id="path-1_1_" y="2" class="st3" width="97" height="15"/>
							</g>
							
								<linearGradient id="Mask-Copy-2_2_" gradientUnits="userSpaceOnUse" x1="-1000.125" y1="-89.2418" x2="-999.2972" y2="-89.2383" gradientTransform="matrix(128 0 0 15 128016 1348.1001)">
								<stop  offset="0" style="stop-color:#FCB902"/>
								<stop  offset="5.731823e-02" style="stop-color:#FCB902"/>
								<stop  offset="0.3128" style="stop-color:#EAEA3A"/>
								<stop  offset="0.3609" style="stop-color:#EAEA3A"/>
								<stop  offset="0.6753" style="stop-color:#0DE010"/>
								<stop  offset="0.9541" style="stop-color:#008C31"/>
								<stop  offset="1" style="stop-color:#008C31"/>
							</linearGradient>
							<path id="Mask-Copy-2_1_" sketch:type="MSShapeGroup" class="st4" d="M102.7,2L102.7,2c1.1,0-19,0-3.2,0
								c3.2,0,6.4,3.5,6.4,7.5l0,0c0,4-3.3,7.5-6.6,7.5c-15.8,0,4.4,0,3.3,0l0,0c-1.4,0-81.3,0-96.2,0C3.3,17,0,13.5,0,9.5l0,0
								C0,5.5,3.3,2,6.4,2C21.4,2,101.3,2,102.7,2z"/>
							<path id="Handle-Copy-2" sketch:type="MSShapeGroup" class="st5" d="M98.5,2L98.5,2c4.1,0,7.5,3.4,7.5,7.5l0,0
								c0,4.1-3.4,7.5-7.5,7.5l0,0c-4.1,0-7.5-3.4-7.5-7.5l0,0C91,5.4,94.4,2,98.5,2z"/>
						</g>
					</g>
				</g>
			</g>
		</g>
	</g>
</g>
</svg>
