<?xml version="1.0" encoding="utf-8"?>
<!-- Generator: Adobe Illustrator 20.1.0, SVG Export Plug-In . SVG Version: 6.00 Build 0)  -->
<!DOCTYPE svg PUBLIC "-//W3C//DTD SVG 1.1//EN" "http://www.w3.org/Graphics/SVG/1.1/DTD/svg11.dtd">
<svg version="1.1" id="Layer_1" xmlns:sketch="http://www.bohemiancoding.com/sketch/ns"
	 xmlns="http://www.w3.org/2000/svg" xmlns:xlink="http://www.w3.org/1999/xlink" x="0px" y="0px" viewBox="0 0 128 19"
	 style="enable-background:new 0 0 128 19;" xml:space="preserve">
<style type="text/css">
	.st0{fill:#FFFFFF;}
	.st1{fill:#F4F4F4;}
	.st2{display:none;opacity:0.3014;fill:#D8D8D8;enable-background:new    ;}
	.st3{fill:none;}
	.st4{fill:url(#Mask-Copy-2_2_);}
	.st5{fill:#FFFFFF;stroke:#27E227;stroke-width:4;stroke-miterlimit:10;}
</style>
<g>
	<rect id="path-1" y="2" class="st0" width="67" height="15"/>
</g>
<title>Review Condition</title>
<g id="Layer_2">
	<path class="st1" d="M120.6,17h-107c-0.8,0-1.4-0.6-1.4-1.4V3.4c0-0.8,0.6-1.4,1.4-1.4h107c4.1,0,7.4,3.3,7.4,7.4v0.3
		C128,13.7,124.7,17,120.6,17z"/>
</g>
<desc>Created with Sketch.</desc>
<g id="Mobile" sketch:type="MSPage">
	<g id="Mockup---Condition-Review" transform="translate(-349.000000, -751.000000)" sketch:type="MSArtboardGroup">
		<g id="Review" transform="translate(124.000000, 79.000000)" sketch:type="MSLayerGroup">
			<g id="Group" transform="translate(0.000000, 203.000000)">
				<g id="Icons" transform="translate(225.000000, 2.769231)">
					<g id="Review-Condition" transform="translate(0.000000, 466.230769)">
						<path id="Mask-Copy-2" sketch:type="MSShapeGroup" class="st2" d="M64,2L64,2c35.3,0,64,3.4,64,7.5l0,0c0,4.1-28.7,7.5-64,7.5
							l0,0C28.7,17,0,13.6,0,9.5l0,0C0,5.4,28.7,2,64,2z"/>
						<g id="Foreground-_x2B_">
							<g id="Mask" sketch:type="MSShapeGroup">
								<rect id="path-1_1_" y="2" class="st3" width="67" height="15"/>
							</g>
							
								<linearGradient id="Mask-Copy-2_2_" gradientUnits="userSpaceOnUse" x1="-1568.6484" y1="430.9678" x2="-1568.125" y2="430.9657" gradientTransform="matrix(128 0 0 -15 200787 6474)">
								<stop  offset="0" style="stop-color:#FCB902"/>
								<stop  offset="5.731823e-02" style="stop-color:#FCB902"/>
								<stop  offset="0.3128" style="stop-color:#EAEA3A"/>
								<stop  offset="0.3609" style="stop-color:#EAEA3A"/>
								<stop  offset="0.6753" style="stop-color:#0DE010"/>
								<stop  offset="0.9541" style="stop-color:#008C31"/>
								<stop  offset="1" style="stop-color:#008C31"/>
							</linearGradient>
							<path id="Mask-Copy-2_1_" sketch:type="MSShapeGroup" class="st4" d="M64,2L64,2c1,0-17.4,0-2.9,0C64,2,67,5.5,67,9.5l0,0
								c0,4-3,7.5-6,7.5c-14.5,0,4,0,3,0l0,0c-1.3,0-44.4,0-58.1,0C3,17,0,13.5,0,9.5l0,0C0,5.5,3,2,5.9,2C19.6,2,62.7,2,64,2z"/>
							<path id="Handle-Copy-2" sketch:type="MSShapeGroup" class="st5" d="M58.5,2L58.5,2C62.6,2,66,5.4,66,9.5l0,0
								c0,4.1-3.4,7.5-7.5,7.5l0,0c-4.1,0-7.5-3.4-7.5-7.5l0,0C51,5.4,54.4,2,58.5,2z"/>
						</g>
					</g>
				</g>
			</g>
		</g>
	</g>
</g>
</svg>
