<?xml version="1.0" encoding="utf-8"?>
<!-- Generator: Adobe Illustrator 19.2.1, SVG Export Plug-In . SVG Version: 6.00 Build 0)  -->
<svg version="1.1" id="Layer_1" xmlns:sketch="http://www.bohemiancoding.com/sketch/ns"
	 xmlns="http://www.w3.org/2000/svg" xmlns:xlink="http://www.w3.org/1999/xlink" x="0px" y="0px" viewBox="0 0 128 19"
	 style="enable-background:new 0 0 128 19;" xml:space="preserve">
<style type="text/css">
	.st0{opacity:0.3014;fill:#D8D8D8;enable-background:new    ;}
	.st1{fill:none;}
	.st2{filter:url(#Adobe_OpacityMaskFilter);}
	.st3{fill:#FFFFFF;}
	.st4{mask:url(#mask-2);fill:url(#Mask-Copy-2_2_);}
	.st5{fill:#FFFFFF;stroke:url(#Handle-Copy-2_1_);stroke-width:4;}
</style>
<title>Review Condition</title>
<desc>Created with Sketch.</desc>
<g id="Mobile" sketch:type="MSPage">
	<g id="Mockup---Condition-Review" transform="translate(-349.000000, -751.000000)" sketch:type="MSArtboardGroup">
		<g id="Review" transform="translate(124.000000, 79.000000)" sketch:type="MSLayerGroup">
			<g id="Group" transform="translate(0.000000, 203.000000)">
				<g id="Icons" transform="translate(225.000000, 2.769231)">
					<g id="Review-Condition" transform="translate(0.000000, 466.230769)">
						<path id="Mask-Copy-2" sketch:type="MSShapeGroup" class="st0" d="M64,2L64,2c35.3,0,64,3.4,64,7.5l0,0c0,4.1-28.7,7.5-64,7.5
							l0,0C28.7,17,0,13.6,0,9.5l0,0C0,5.4,28.7,2,64,2z"/>
						<g id="Foreground-_x2B_">
							<g id="Mask" sketch:type="MSShapeGroup">
								<rect id="path-1_1_" y="2" class="st1" width="128" height="15"/>
							</g>
							<defs>
								<filter id="Adobe_OpacityMaskFilter" filterUnits="userSpaceOnUse" x="0" y="2" width="128" height="15">
									<feColorMatrix  type="matrix" values="1 0 0 0 0  0 1 0 0 0  0 0 1 0 0  0 0 0 1 0"/>
								</filter>
							</defs>
							<mask maskUnits="userSpaceOnUse" x="0" y="2" width="128" height="15" id="mask-2">
								<g class="st2">
									<rect id="path-1" y="2" class="st3" width="128" height="15"/>
								</g>
							</mask>
							
								<linearGradient id="Mask-Copy-2_2_" gradientUnits="userSpaceOnUse" x1="-431.6016" y1="476.8354" x2="-430.6015" y2="476.8312" gradientTransform="matrix(128 0 0 -15 55245 7162)">
								<stop  offset="0" style="stop-color:#FCB902"/>
								<stop  offset="5.731823e-02" style="stop-color:#FCB902"/>
								<stop  offset="0.3128" style="stop-color:#EAEA3A"/>
								<stop  offset="0.3609" style="stop-color:#EAEA3A"/>
								<stop  offset="0.6753" style="stop-color:#0DE010"/>
								<stop  offset="0.9541" style="stop-color:#008C31"/>
								<stop  offset="1" style="stop-color:#008C31"/>
							</linearGradient>
							<path id="Mask-Copy-2_1_" sketch:type="MSShapeGroup" class="st4" d="M64,2L64,2c1,0,43.6,0,58.1,0c2.9,0,5.9,3.5,5.9,7.5
								l0,0c0,4-3,7.5-6,7.5c-14.5,0-57,0-58,0l0,0c-1.3,0-44.4,0-58.1,0C3,17,0,13.5,0,9.5l0,0C0,5.5,3,2,5.9,2C19.6,2,62.7,2,64,2
								z"/>
							
								<linearGradient id="Handle-Copy-2_1_" gradientUnits="userSpaceOnUse" x1="-417.5663" y1="483.7105" x2="-411.1263" y2="483.7105" gradientTransform="matrix(19 0 0 -19 7939 9200)">
								<stop  offset="0" style="stop-color:#FCB902"/>
								<stop  offset="5.731823e-02" style="stop-color:#FCB902"/>
								<stop  offset="0.3128" style="stop-color:#EAEA3A"/>
								<stop  offset="0.3609" style="stop-color:#EAEA3A"/>
								<stop  offset="0.6753" style="stop-color:#0DE010"/>
								<stop  offset="0.9541" style="stop-color:#008C31"/>
								<stop  offset="1" style="stop-color:#008C31"/>
							</linearGradient>
							<path id="Handle-Copy-2" sketch:type="MSShapeGroup" class="st5" d="M118.5,2L118.5,2c4.1,0,7.5,3.4,7.5,7.5l0,0
								c0,4.1-3.4,7.5-7.5,7.5l0,0c-4.1,0-7.5-3.4-7.5-7.5l0,0C111,5.4,114.4,2,118.5,2z"/>
						</g>
					</g>
				</g>
			</g>
		</g>
	</g>
</g>
</svg>
