<svg id="Layer_1" data-name="Layer 1" xmlns="http://www.w3.org/2000/svg" viewBox="0 0 622.79 254.22"><defs><style>.cls-1{fill:#fff;}.cls-2{fill:#ed1b2d;}</style></defs><title>ACV_Mobile_Logo_final-02</title><g id="_Group_" data-name="&lt;Group&gt;"><path id="_Compound_Path_" data-name="&lt;Compound Path&gt;" class="cls-1" d="M189.18,67.51h64L286,279h-64l-3.55-30.21h-69L133.2,279H66.85Zm-16,136h40.58l-7.11-63.39h-0.59Z" transform="translate(-65.13 -62.48)"/><path id="_Compound_Path_2" data-name="&lt;Compound Path&gt;" class="cls-1" d="M484.49,198.73C480.64,220.35,464.05,284,376.08,284c-61.31,0-90.93-39.69-90.93-96.27,0-68.42,42.65-125.29,114.63-125.29,47.1,0,89.16,20.44,90.34,83.83H428.51c0.59-19.85-8.89-31.1-29-31.1-36.14,0-49.17,41.47-49.17,71.39,0,17.48,4.15,44.73,34.06,44.73,20.44,0,32-13.92,36.14-32.58h64Z" transform="translate(-65.13 -62.48)"/><path id="_Compound_Path_3" data-name="&lt;Compound Path&gt;" class="cls-1" d="M580.75,279H507.59L489.52,67.51h63.68L563,191.32h0.59L619,67.51H686.2Z" transform="translate(-65.13 -62.48)"/></g><rect id="_Path_" data-name="&lt;Path&gt;" class="cls-2" y="244.44" width="622.79" height="9.78"/></svg>