<?xml version="1.0" encoding="utf-8"?>
<!-- Generator: Adobe Illustrator 19.2.1, SVG Export Plug-In . SVG Version: 6.00 Build 0)  -->
<svg version="1.1" id="Layer_1" xmlns="http://www.w3.org/2000/svg" xmlns:xlink="http://www.w3.org/1999/xlink" x="0px" y="0px"
	 viewBox="0 0 792 263.3" style="enable-background:new 0 0 792 263.3;" xml:space="preserve">
<style type="text/css">
	.st0{fill-rule:evenodd;clip-rule:evenodd;fill:#ED1C2E;}
	.st1{fill:#00539B;}
</style>
<g>
	<rect x="72" y="168.5" class="st0" width="648" height="21"/>
	<g>
		<path class="st1" d="M687.8,87.5c0-3.3,2.6-5.9,5.9-5.9c3.3,0,5.9,2.6,5.9,5.9c0,3.3-2.6,5.9-5.9,5.9
			C690.4,93.4,687.8,90.7,687.8,87.5z M698.2,87.5c0-2.6-2-4.5-4.5-4.5c-2.6,0-4.5,1.9-4.5,4.5c0,2.6,1.9,4.5,4.5,4.5
			C696.2,92,698.2,90.1,698.2,87.5z M696.5,90.5H695l-1.4-2.6h-1v2.6h-1.4v-6.1h3c1.4,0,2.4,0.3,2.4,1.9c0,1.1-0.6,1.6-1.7,1.7
			L696.5,90.5z M694.3,87c0.7,0,1.1-0.1,1.1-0.9c0-0.6-0.8-0.6-1.4-0.6h-1.3V87H694.3z"/>
	</g>
	<g>
		<path class="st1" d="M104.6,75.3H73.5V62.5h94.9v12.8h-31v82.5h-32.8V75.3z"/>
		<path class="st1" d="M168.6,157.5V80.7h25.8v76.9H168.6z"/>
		<path class="st1" d="M223.3,91h-24.6V80.7h74.8V91h-24.4v66.5h-25.8V91z"/>
		<path class="st1" d="M277.8,80.7h24.5v66.5H334v10.4h-56.2V80.7z"/>
		<path class="st1" d="M337.7,80.7H393V91h-30.6v22.4h28.9v10.4h-28.9v23.4h32.2v10.4h-56.9V80.7z"/>
		<path class="st1" d="M404.4,63.1h30.5l26.2,50.6l26-50.6h31.9V157h-32.5V95.3L455.2,157H452l-30.7-59v59h-16.9V63.1z"/>
		<path class="st1" d="M554.8,80.7h23.3l31.5,76.9h-25.5l-9.1-22.7h-28.8l-8.5,22.7h-12.2L554.8,80.7z M571,125L560,97.5L549.8,125
			H571z"/>
		<path class="st1" d="M636.1,80.7l12.9,22.4l14.6-22.4h12.2l-21.3,31.5l52.1,88.6l-25.3,0l-40.1-69.4l-17.4,26.1h-12l23.7-35.2
			l-24.3-41.7H636.1z"/>
	</g>
</g>
</svg>
