<svg id="Layer_1" data-name="Layer 1" xmlns="http://www.w3.org/2000/svg" viewBox="0 0 619.35 221.56"><defs><style>.cls-1{fill:#00529b;}</style></defs><title>ACV_Mobile_Logo_final-03</title><g id="_Group_" data-name="&lt;Group&gt;"><path id="_Compound_Path_" data-name="&lt;Compound Path&gt;" class="cls-1" d="M199.71,93.15h64l32.88,211.49h-64L229,274.43H160l-16.29,30.21H77.38Zm-16,136H224.3l-7.11-63.39H216.6Z" transform="translate(-77.38 -88.12)"/><path id="_Compound_Path_2" data-name="&lt;Compound Path&gt;" class="cls-1" d="M495,224.37c-3.85,21.62-20.44,85.31-108.41,85.31-61.31,0-90.94-39.69-90.94-96.27,0-68.42,42.65-125.29,114.63-125.29,47.1,0,89.16,20.44,90.34,83.83H439c0.59-19.85-8.89-31.1-29-31.1-36.14,0-49.17,41.47-49.17,71.39,0,17.48,4.15,44.73,34.06,44.73,20.44,0,32-13.92,36.14-32.58h64Z" transform="translate(-77.38 -88.12)"/><path id="_Compound_Path_3" data-name="&lt;Compound Path&gt;" class="cls-1" d="M591.29,304.64H518.12L500.05,93.15h63.68L573.51,217h0.59L629.5,93.15h67.24Z" transform="translate(-77.38 -88.12)"/></g></svg>