<svg id="Layer_1" data-name="Layer 1" xmlns="http://www.w3.org/2000/svg" viewBox="0 0 624.69 483"><defs><style>.cls-1{fill:#00529b;}.cls-2{fill:#ed1b2d;}</style></defs><title>ACV_Mobile_Logo_final-01</title><g id="_Group_" data-name="&lt;Group&gt;"><g id="_Group_2" data-name="&lt;Group&gt;"><path id="_Compound_Path_" data-name="&lt;Compound Path&gt;" class="cls-1" d="M207.06,74.54h64L303.92,286h-64l-3.55-30.21h-69L151.08,286H84.73Zm-16,136h40.58l-7.11-63.39h-0.59Z" transform="translate(-81.7 -69.51)"/><path id="_Compound_Path_2" data-name="&lt;Compound Path&gt;" class="cls-1" d="M502.38,205.76c-3.85,21.62-20.44,85.31-108.41,85.31-61.31,0-90.93-39.69-90.93-96.27,0-68.42,42.65-125.29,114.63-125.29,47.1,0,89.16,20.44,90.34,83.83H446.39c0.59-19.85-8.89-31.1-29-31.1-36.14,0-49.17,41.47-49.17,71.39,0,17.48,4.15,44.73,34.06,44.73,20.44,0,32-13.92,36.14-32.58h64Z" transform="translate(-81.7 -69.51)"/><path id="_Compound_Path_3" data-name="&lt;Compound Path&gt;" class="cls-1" d="M598.64,286H525.48L507.41,74.54h63.68l9.77,123.81h0.59L636.85,74.54h67.24Z" transform="translate(-81.7 -69.51)"/></g><rect id="_Path_" data-name="&lt;Path&gt;" class="cls-2" x="1.31" y="244.44" width="622.79" height="9.78"/><rect id="_Path_2" data-name="&lt;Path&gt;" class="cls-2" x="1.31" y="377.69" width="622.79" height="9.78"/><g id="_Group_3" data-name="&lt;Group&gt;"><path id="_Compound_Path_4" data-name="&lt;Compound Path&gt;" class="cls-1" d="M301.07,477.12h22.7l27.45,75.39H327.15L324,541.74H300l-3.38,10.77H273.3Zm18.27,48.47-6.76-23.23h-0.21l-7.29,23.23h14.25Z" transform="translate(-81.7 -69.51)"/><path id="_Compound_Path_5" data-name="&lt;Compound Path&gt;" class="cls-1" d="M356.4,477.12h38.86c20.48,0,27.67,15,27.67,25.76,0,18.27-12.25,26.82-29.57,26.82H379.63v22.81H356.4V477.12Zm23.23,34.63h9c6,0,12.35-.42,12.35-8,0-6.86-5.28-7.29-11-7.29H379.63v15.31Z" transform="translate(-81.7 -69.51)"/><path id="_Compound_Path_6" data-name="&lt;Compound Path&gt;" class="cls-1" d="M430.74,477.12H469.6c20.48,0,27.67,15,27.67,25.76,0,18.27-12.25,26.82-29.57,26.82H454v22.81H430.74V477.12ZM454,511.75h9c6,0,12.35-.42,12.35-8,0-6.86-5.28-7.29-11-7.29H454v15.31Z" transform="translate(-81.7 -69.51)"/></g><g id="_Group_4" data-name="&lt;Group&gt;"><path id="_Compound_Path_7" data-name="&lt;Compound Path&gt;" class="cls-1" d="M109.47,349.55h22.7l27.45,75.39H135.55l-3.17-10.77h-24L105,424.94H81.7ZM127.74,398L121,374.79h-0.21L113.48,398h14.25Z" transform="translate(-81.7 -69.51)"/><path id="_Compound_Path_8" data-name="&lt;Compound Path&gt;" class="cls-1" d="M164.8,349.55h38.86c20.48,0,27.67,15,27.67,25.76,0,18.27-12.25,26.82-29.57,26.82H188v22.81H164.8V349.55ZM188,384.19h9c6,0,12.35-.42,12.35-8,0-6.86-5.28-7.29-11-7.29H188v15.31Z" transform="translate(-81.7 -69.51)"/><path id="_Compound_Path_9" data-name="&lt;Compound Path&gt;" class="cls-1" d="M239.14,349.55H278c20.48,0,27.67,15,27.67,25.76,0,18.27-12.25,26.82-29.57,26.82H262.37v22.81H239.14V349.55Zm23.23,34.63h9c6,0,12.35-.42,12.35-8,0-6.86-5.28-7.29-11-7.29H262.37v15.31Z" transform="translate(-81.7 -69.51)"/><path id="_Compound_Path_10" data-name="&lt;Compound Path&gt;" class="cls-1" d="M313.48,349.55h44.24c13.2,0,24.6,7.29,24.6,21.54,0,7.81-3.59,16-11.3,18.9,6.34,2.43,10.24,9.4,11.09,18.79,0.32,3.7.42,12.67,2.53,16.16H361.42a54.44,54.44,0,0,1-1.9-11.62c-0.63-7.18-1.27-14.68-10.45-14.68H336.71v26.29H313.48V349.55Zm23.23,32.94h12.14c4.33,0,10.24-.74,10.24-7.5,0-4.75-2.64-7.5-11.51-7.5H336.71v15Z" transform="translate(-81.7 -69.51)"/><path id="_Compound_Path_11" data-name="&lt;Compound Path&gt;" class="cls-1" d="M412.63,349.55h22.7l27.45,75.39H438.71l-3.17-10.77h-24l-3.38,10.77H384.86ZM430.9,398l-6.76-23.23h-0.21L416.64,398H430.9Z" transform="translate(-81.7 -69.51)"/><path id="_Compound_Path_12" data-name="&lt;Compound Path&gt;" class="cls-1" d="M468,349.55h23.23v75.39H468V349.55Z" transform="translate(-81.7 -69.51)"/><path id="_Compound_Path_13" data-name="&lt;Compound Path&gt;" class="cls-1" d="M521.6,399.6a13.92,13.92,0,0,0,.84,5c1.69,4.54,6.76,5.49,11.09,5.49,3.8,0,9.61-1.27,9.61-6.86,0-3.91-3.27-5-16.26-8.66-11.93-3.38-25.55-6.65-25.55-21.86,0-17.42,14.89-24.92,30.41-24.92,16.37,0,30.83,6.23,31.47,24.6h-22a5.77,5.77,0,0,0-2.75-6,12,12,0,0,0-6.86-1.9c-3.17,0-8.34.84-8.34,5.07,0.42,5.39,11.19,6.55,21.86,9.5s21.22,7.92,21.22,21.75c0,19.64-18.06,26-34.84,26-8.55,0-32.94-3.06-33.16-27.14H521.6Z" transform="translate(-81.7 -69.51)"/><path id="_Compound_Path_14" data-name="&lt;Compound Path&gt;" class="cls-1" d="M594.46,349.55h22.7l27.45,75.39H620.54l-3.17-10.77h-24L590,424.94H566.69ZM612.73,398L606,374.79h-0.21L598.47,398h14.25Z" transform="translate(-81.7 -69.51)"/><path id="_Compound_Path_15" data-name="&lt;Compound Path&gt;" class="cls-1" d="M649.79,349.55H673v56.07h33.37v19.32h-56.6V349.55Z" transform="translate(-81.7 -69.51)"/></g></g></svg>