<svg id="Layer_1" data-name="Layer 1" xmlns="http://www.w3.org/2000/svg" viewBox="0 0 128 50"><defs><style>.cls-1{fill:#fff;}.cls-2{isolation:isolate;}</style></defs><title>photo_guide-series</title><g id="Mobile"><g id="_99-Photo-Grid" data-name="99-Photo-Grid"><g id="Photo-Grid"><g id="Row-1"><g id="Photo-Tile-Copy-6"><g id="VIN"><g id="Icon---Series"><rect id="Rectangle-2097" class="cls-1" width="128" height="4"/><rect id="Rectangle-2097-Copy" class="cls-1" y="46" width="128" height="4"/><g id="Title-VIN" class="cls-2"><g class="cls-2"><path class="cls-1" d="M7,34.4V33.87a10.82,10.82,0,0,0,3-1.07,17.35,17.35,0,0,0,4-3.05,21.13,21.13,0,0,0,3.19-4.22,9.45,9.45,0,0,1-1.58.65,5,5,0,0,1-1.27.15,4.59,4.59,0,0,1-3.85-1.72,6.34,6.34,0,0,1-1.33-4,9.81,9.81,0,0,1,2.59-6.84,7.47,7.47,0,0,1,5.51-2.85,4.69,4.69,0,0,1,4.07,2,7.83,7.83,0,0,1,1.42,4.66,15.46,15.46,0,0,1-1.57,6.69,17.65,17.65,0,0,1-4.25,5.69,18.76,18.76,0,0,1-5.64,3.54A15.94,15.94,0,0,1,7,34.4ZM18,24.14a19.67,19.67,0,0,0,2.35-8.52,4.09,4.09,0,0,0-.89-2.82,2.71,2.71,0,0,0-2.08-1q-2,0-3.59,2.75a12.63,12.63,0,0,0-1.63,6.54,4.38,4.38,0,0,0,.93,3,3,3,0,0,0,2.33,1A3.43,3.43,0,0,0,16.63,25,6.64,6.64,0,0,0,18,24.14Z"/><path class="cls-1" d="M34.89,10.91a4.48,4.48,0,0,1,3.59,1.78q1.46,1.79,1.46,5.64a22.33,22.33,0,0,1-1.08,6.74,18.72,18.72,0,0,1-3.05,6,10.33,10.33,0,0,1-3.29,2.87,5.13,5.13,0,0,1-2.32.5,4.51,4.51,0,0,1-3.63-1.79Q25.12,30.83,25.12,27a21.44,21.44,0,0,1,1.47-7.67A16.89,16.89,0,0,1,31,12.45,5.8,5.8,0,0,1,34.89,10.91Zm0,0.87a3.23,3.23,0,0,0-2,.76A8.28,8.28,0,0,0,30.9,15.7a40.61,40.61,0,0,0-2,6.19,35.41,35.41,0,0,0-1.25,8.44,3.85,3.85,0,0,0,.75,2.59,2.33,2.33,0,0,0,1.82.86,2.46,2.46,0,0,0,1.73-.67q1.92-1.8,3.29-6.16a41,41,0,0,0,2.22-11.58,4.12,4.12,0,0,0-.75-2.73A2.26,2.26,0,0,0,34.91,11.78Z"/><path class="cls-1" d="M52,10.91a4.48,4.48,0,0,1,3.59,1.78Q57,14.48,57,18.34a22.33,22.33,0,0,1-1.08,6.74,18.72,18.72,0,0,1-3.05,6A10.33,10.33,0,0,1,49.6,33.9a5.13,5.13,0,0,1-2.32.5,4.51,4.51,0,0,1-3.63-1.79Q42.2,30.83,42.2,27a21.44,21.44,0,0,1,1.47-7.67,16.89,16.89,0,0,1,4.39-6.84A5.8,5.8,0,0,1,52,10.91Zm0,0.87a3.23,3.23,0,0,0-2,.76A8.28,8.28,0,0,0,48,15.7a40.61,40.61,0,0,0-2,6.19,35.41,35.41,0,0,0-1.25,8.44,3.85,3.85,0,0,0,.75,2.59,2.33,2.33,0,0,0,1.82.86A2.46,2.46,0,0,0,49,33.12q1.92-1.8,3.29-6.16a41,41,0,0,0,2.22-11.58,4.12,4.12,0,0,0-.75-2.73A2.26,2.26,0,0,0,52,11.78Z"/><path class="cls-1" d="M71.51,10.91l-5.37,18.7A10.06,10.06,0,0,0,65.67,32a1.11,1.11,0,0,0,.42.94,4.38,4.38,0,0,0,2,.44L67.92,34H59.33l0.23-.62a6,6,0,0,0,1.8-.22,2.38,2.38,0,0,0,1.05-.8,9.65,9.65,0,0,0,1.12-2.75L67.4,16.18q0.35-1.22.38-1.4a4.39,4.39,0,0,0,0-.65,1.28,1.28,0,0,0-.32-0.92,1.14,1.14,0,0,0-.87-0.33,7.06,7.06,0,0,0-1.35.2l-0.22-.6,5.62-1.57h0.8Z"/><path class="cls-1" d="M100.51,11.38h7.66L108,12a7.36,7.36,0,0,0-2.83,1,18.56,18.56,0,0,0-3.29,3l-5.87,6L97.64,28q0.23,0.87.87,2.69a5.55,5.55,0,0,0,.8,1.65,2.61,2.61,0,0,0,1,.74,5.53,5.53,0,0,0,1.84.31L102,34H93.11l0.18-.62a3.45,3.45,0,0,0,2-.52A1,1,0,0,0,95.71,32a10.55,10.55,0,0,0-.43-2.05l-1.58-5.69-5.3,5.35a16.5,16.5,0,0,0-1.85,2.08,1.11,1.11,0,0,0-.18.58,0.94,0.94,0,0,0,.5.82,5.53,5.53,0,0,0,1.42.28L88.1,34H80.58l0.18-.62a5.72,5.72,0,0,0,2.32-.65,21.18,21.18,0,0,0,3.64-3.12L93.29,23l-1.8-6.52a11.45,11.45,0,0,0-1.43-3.7A3,3,0,0,0,87.94,12l0.17-.62h8.09L96,12a5.23,5.23,0,0,0-1.51.14,1.22,1.22,0,0,0-.6.43,1.11,1.11,0,0,0-.21.66,9.9,9.9,0,0,0,.4,1.87l1.53,5.57,3.55-3.54A20.4,20.4,0,0,0,102,13.75a1.55,1.55,0,0,0,.28-0.8,0.69,0.69,0,0,0-.32-0.6,3.55,3.55,0,0,0-1.68-.35Z"/><path class="cls-1" d="M119.4,34H102.63l0.23-.62a6,6,0,0,0,1.78-.22,2.32,2.32,0,0,0,1-.78,11,11,0,0,0,1.1-2.77l4-13.76a10,10,0,0,0,.5-2.5,1.17,1.17,0,0,0-.46-1,3,3,0,0,0-1.73-.35l-0.45,0,0.2-.62h9.22l-0.13.62a5.74,5.74,0,0,0-2.2.3,2.54,2.54,0,0,0-1.08,1,14.79,14.79,0,0,0-1,2.8l-3.92,13.53a9.14,9.14,0,0,0-.45,2.13,1,1,0,0,0,.45.77,2.15,2.15,0,0,0,1.29.25h2.18a9.81,9.81,0,0,0,3.79-.6,5.91,5.91,0,0,0,1.9-1.35,18.33,18.33,0,0,0,1.65-2.49l0.43-.75h0.62Z"/></g></g></g></g></g></g></g></g></g></svg>