<?xml version="1.0" encoding="UTF-8" standalone="no"?>
<svg width="139px" height="99px" viewBox="0 0 139 99" version="1.1" xmlns="http://www.w3.org/2000/svg" xmlns:xlink="http://www.w3.org/1999/xlink" xmlns:sketch="http://www.bohemiancoding.com/sketch/ns">
    <!-- Generator: Sketch 3.5.2 (25235) - http://www.bohemiancoding.com/sketch -->
    <title>Icon - Damage Front</title>
    <desc>Created with Sketch.</desc>
    <defs></defs>
    <g id="Mobile" stroke="none" stroke-width="1" fill="none" fill-rule="evenodd" sketch:type="MSPage">
        <g id="99-Photo-Grid" sketch:type="MSArtboardGroup" transform="translate(-654.000000, -1664.000000)">
            <g id="Photo-Grid" sketch:type="MSLayerGroup" transform="translate(85.000000, 810.000000)">
                <g id="Row-1">
                    <g id="Photo-Tile-Copy-7" transform="translate(516.000000, 775.000000)">
                        <g id="Front" transform="translate(-67.000000, -21.000000)">
                            <g id="Icon---Damage-Front" transform="translate(120.000000, 100.000000)">
                                <path d="M11,58.8665503 L11,82 L21,82 L21,92.0073041 C21,95.8560878 24.1330757,99 27.9979204,99 L32.0020796,99 C35.8646393,99 39,95.8692634 39,92.0073041 L39,82 L111,82 L111,92.0073041 C111,95.8560878 114.133076,99 117.99792,99 L122.00208,99 C125.864639,99 129,95.8692634 129,92.0073041 L129,82 L139,82 L139,42.0070969 C139,37.5881712 135.415156,34 130.993027,34 L31.8078477,34 L30.0221886,37.1072279 L42.6962514,45.7855443 L36.4640227,46.7376891 C38.0338,48.3577094 39,50.5660207 39,53 C39,57.9705627 34.9705627,62 30,62 C29.4946215,62 28.998972,61.958345 28.5162976,61.8782811 L28.6291029,63.4251906 L26.1569612,61.1405881 C24.4890757,60.3518205 23.1024743,59.0655651 22.1886829,57.4733475 L17.3481257,53 L11,58.8665503 Z M120,62 C124.970563,62 129,57.9705627 129,53 C129,48.0294373 124.970563,44 120,44 C115.029437,44 111,48.0294373 111,53 C111,57.9705627 115.029437,62 120,62 Z M16.5737745,48.5 L9.19775094,55.3164708 L9.92820691,45.2996633 L7.77156117e-16,43.7828559 L8.28688725,38.1085721 L3.28263931,29.4006734 L12.8857627,32.3417646 L16.5737745,23 L20.2617863,32.3417646 L29.8649097,29.4006734 L24.8606618,38.1085721 L33.147549,43.7828559 L23.2193421,45.2996633 L23.9497981,55.3164708 L16.5737745,48.5 Z" id="Rectangle-486" fill="#FFFFFF" sketch:type="MSShapeGroup"></path>
                                <path d="M34.2468762,40 L120.992674,40 C125.422043,40 127.958372,36.5741691 126.673459,32.3481924 L119.165607,7.6554595 C117.879997,3.42719097 113.257843,0 108.841551,0 L40.6431704,0 C36.2374231,0 31.6446224,3.44179004 30.4084164,7.68745323 L24.5495414,27.8093489 L29.1235355,26.4084991 L34.2489296,8.80569214 L34.2489296,8.80569214 C34.9869962,6.27085383 38.0124678,4 40.6431704,4 L108.841551,4 C111.496632,4 114.565168,6.27532668 115.338595,8.81906663 L122.846448,33.5117995 C123.350571,35.1698223 122.734766,36 120.992674,36 L30.6584894,36 L30.0221886,37.1072279 L34.2468762,40 Z M16.5737745,48.5 L9.19775094,55.3164708 L9.92820691,45.2996633 L7.77156117e-16,43.7828559 L8.28688725,38.1085721 L3.28263931,29.4006734 L12.8857627,32.3417646 L16.5737745,23 L20.2617863,32.3417646 L29.8649097,29.4006734 L24.8606618,38.1085721 L33.147549,43.7828559 L23.2193421,45.2996633 L23.9497981,55.3164708 L16.5737745,48.5 Z" id="Shape" fill="#FFFFFF" sketch:type="MSShapeGroup"></path>
                                <g id="Icon---Condition-Major" transform="translate(102.000000, 14.000000)"></g>
                            </g>
                        </g>
                    </g>
                </g>
            </g>
        </g>
    </g>
</svg>