<svg id="Layer_1" data-name="Layer 1" xmlns="http://www.w3.org/2000/svg" viewBox="0 0 128 85"><defs><style>.cls-1{fill:#fff;}.cls-2{isolation:isolate;}</style></defs><title>photo_guide-vinFromTitle</title><g id="Mobile"><g id="_99-Photo-Grid" data-name="99-Photo-Grid"><g id="Photo-Grid"><g id="Row-2"><g id="Photo-Tile"><g id="Front"><g id="Icon---Title-VIN"><path class="cls-1" d="M122,0H6A6,6,0,0,0,0,6V74a6,6,0,0,0,6,6H93V71H8V8H121V71h-6v9h7a6,6,0,0,0,6-6V6A6,6,0,0,0,122,0Z"/><path id="Star-1" class="cls-1" d="M98.27,63H96V85h16V63h-2.27L108,67.36l-4-2.57-4,2.57ZM104,80l8,5H96Zm0-17.91-3.71,2.37-1.61-4.1-4.39-.26,1.11-4.26L92,53l3.4-2.79L94.29,46l4.39-.26,1.61-4.1L104,44l3.71-2.37,1.61,4.1L113.71,46l-1.11,4.26L116,53l-3.4,2.79,1.11,4.26-4.39.26-1.61,4.1ZM20,40H81a3,3,0,0,0,0-6H20A3,3,0,0,0,20,40Zm0,15H81a3,3,0,0,0,0-6H20A3,3,0,0,0,20,55Z"/><g id="Title-VIN" class="cls-2"><g class="cls-2"><path class="cls-1" d="M18.91,16.42v0.52H18.18l0.59,4h0l1-2.9,1,2.9h0l0.59-4H20.73V16.42h1.68v0.52H22l-0.75,5.17H20.71l-0.88-2.43-0.88,2.43H18.38l-0.75-5.17h-0.4V16.42h1.69Z"/><path class="cls-1" d="M23.77,17L23,16.85l0-.44a7.2,7.2,0,0,0,.88.11c0.36,0,.72-0.11,1.15-0.11,1.35,0,2.48.88,2.48,2.83S26.54,22,25.3,22A11.15,11.15,0,0,0,24,22l-1,.11L23,21.55l0.76-.07V17Zm0.58,4.47h0.93c1,0,1.68-.56,1.68-2.12,0-1.86-1.13-2.51-1.95-2.42L24.35,17v4.47Z"/><path class="cls-1" d="M29.35,17l-0.74-.16,0-.44a7.2,7.2,0,0,0,.88.11c0.36,0,.72-0.11,1.15-0.11,1.35,0,2.48.88,2.48,2.83S32.13,22,30.88,22a11.15,11.15,0,0,0-1.25,0l-1,.11-0.08-.52,0.76-.07V17Zm0.58,4.47h0.93c1,0,1.68-.56,1.68-2.12,0-1.86-1.13-2.51-1.95-2.42L29.93,17v4.47Z"/><path class="cls-1" d="M38.44,21L38,22H34.77V21.49l1.77-1.89a3.1,3.1,0,0,0,.94-1.82,1,1,0,0,0-1-.95,1.06,1.06,0,0,0-.84.36,0.61,0.61,0,0,1-.48.74,0.26,0.26,0,0,1-.25-0.31,1.61,1.61,0,0,1,3.19.14,2.91,2.91,0,0,1-.87,1.89L35.7,21.3l-0.18.18h2.07l0.33-.61Z"/><path class="cls-1" d="M44.09,19.21c0,2.13-1,2.9-1.93,2.9s-1.93-.77-1.93-2.9,1-2.9,1.93-2.9S44.09,17.08,44.09,19.21Zm-1.93-2.38c-1.15,0-1.32,1.53-1.32,2.38s0.17,2.38,1.32,2.38,1.32-1.53,1.32-2.38S43.32,16.83,42.16,16.83Z"/><path class="cls-1" d="M49,18.08V20h0.8v0.52H49v0.93h0.8V22H47.51V21.48h0.93V20.55H45.72V20A15.24,15.24,0,0,0,47.57,16l0.58,0.16A14.4,14.4,0,0,1,46.3,20h2.14V18.08H49Z"/><path class="cls-1" d="M55.19,21l-0.47,1H51.52V21.49l1.77-1.89a3.1,3.1,0,0,0,.94-1.82,1,1,0,0,0-1-.95,1.06,1.06,0,0,0-.84.36,0.61,0.61,0,0,1-.48.74,0.26,0.26,0,0,1-.25-0.31,1.61,1.61,0,0,1,3.19.14A2.91,2.91,0,0,1,54,19.65L52.46,21.3l-0.18.18h2.07l0.33-.61Z"/><path class="cls-1" d="M60.84,19.21c0,2.13-1,2.9-1.93,2.9S57,21.34,57,19.21s1-2.9,1.93-2.9S60.84,17.08,60.84,19.21Zm-1.93-2.38c-1.15,0-1.32,1.53-1.32,2.38s0.17,2.38,1.32,2.38,1.32-1.53,1.32-2.38S60.07,16.83,58.92,16.83Z"/><path class="cls-1" d="M66.36,21l-0.47,1H62.69V21.49l1.77-1.89a3.1,3.1,0,0,0,.94-1.82,1,1,0,0,0-1-.95,1.06,1.06,0,0,0-.84.36,0.61,0.61,0,0,1-.48.74,0.26,0.26,0,0,1-.25-0.31,1.61,1.61,0,0,1,3.19.14,2.91,2.91,0,0,1-.87,1.89L63.62,21.3l-0.18.18h2.07l0.33-.61Z"/><path class="cls-1" d="M70.46,21.48h1.25V22H68.56V21.48h1.33V17.11a4.15,4.15,0,0,1-1,.09l-0.26,0-0.09-.51a3.48,3.48,0,0,0,.87,0,0.85,0.85,0,0,0,.49-0.22,0.31,0.31,0,0,1,.25-0.14c0.29,0,.28.28,0.28,0.48v4.69Z"/><path class="cls-1" d="M77.79,16.42V18H77.21V17.79c0-.75,0-0.86-0.77-0.86H74.88v1.91h1.28V18.05h0.58v2.19H76.15V19.37H74.88v2.11h1.64V22H73.39V21.48H74.3V16.94H73.39V16.42h4.4Z"/><path class="cls-1" d="M79.83,21.56l0.47,0a2.2,2.2,0,0,0,2.16-2.1h0A1.85,1.85,0,0,1,81.2,20a1.75,1.75,0,0,1-1.76-1.81,1.82,1.82,0,0,1,1.79-1.93c0.74,0,1.84.52,1.84,2.38s-0.86,3.42-2.78,3.42l-0.46,0V21.56Zm1.42-4.74A1.27,1.27,0,0,0,80,18.17a1.22,1.22,0,1,0,2.42,0A1.27,1.27,0,0,0,81.25,16.83Z"/><path class="cls-1" d="M87.61,18.95a1.54,1.54,0,0,1,.85,1.43,1.76,1.76,0,0,1-1.91,1.73,3.44,3.44,0,0,1-1.76-.45L85,21.2a3,3,0,0,0,1.48.39,1.19,1.19,0,0,0,1.35-1.18,1.09,1.09,0,0,0-1.19-1.19l-0.47,0V18.7a2.07,2.07,0,0,0,.33,0,0.88,0.88,0,0,0,1.05-.86,0.94,0.94,0,0,0-1-1.05A1,1,0,0,0,86,17a0.67,0.67,0,0,1-.55.67,0.27,0.27,0,0,1-.27-0.31,1,1,0,0,1,.45-0.74,1.77,1.77,0,0,1,1.1-.36,1.48,1.48,0,0,1,1.5,1.51,1.32,1.32,0,0,1-.57,1.13h0Z"/><path class="cls-1" d="M93.73,16.94H91.58l-0.11,1.28,0.53,0A1.79,1.79,0,0,1,94,20a2.13,2.13,0,0,1-2.28,2.1,3.75,3.75,0,0,1-1.36-.27l0.15-.5a3,3,0,0,0,1.18.25A1.56,1.56,0,0,0,93.37,20,1.27,1.27,0,0,0,92,18.69a4,4,0,0,0-1.14.19l0.2-2.46h2.66v0.52Z"/><path class="cls-1" d="M99.31,16.94H97.17l-0.11,1.28,0.53,0a1.79,1.79,0,0,1,2,1.84,2.13,2.13,0,0,1-2.28,2.1,3.75,3.75,0,0,1-1.36-.27l0.15-.5a3,3,0,0,0,1.18.25A1.56,1.56,0,0,0,99,20a1.27,1.27,0,0,0-1.36-1.34,4,4,0,0,0-1.14.19l0.2-2.46h2.66v0.52Z"/><path class="cls-1" d="M104.36,18.95a1.54,1.54,0,0,1,.85,1.43,1.76,1.76,0,0,1-1.91,1.73,3.44,3.44,0,0,1-1.76-.45l0.23-.47a3,3,0,0,0,1.48.39,1.19,1.19,0,0,0,1.35-1.18,1.09,1.09,0,0,0-1.19-1.19l-0.47,0V18.7a2.07,2.07,0,0,0,.33,0,0.88,0.88,0,0,0,1.05-.86,0.94,0.94,0,0,0-1-1.05,1,1,0,0,0-.64.22,0.67,0.67,0,0,1-.55.67,0.27,0.27,0,0,1-.27-0.31,1,1,0,0,1,.45-0.74,1.77,1.77,0,0,1,1.1-.36,1.48,1.48,0,0,1,1.5,1.51,1.32,1.32,0,0,1-.57,1.13h0Z"/><path class="cls-1" d="M111,21l-0.47,1h-3.19V21.49l1.77-1.89a3.1,3.1,0,0,0,.94-1.82,1,1,0,0,0-1-.95,1.06,1.06,0,0,0-.84.36,0.61,0.61,0,0,1-.48.74,0.26,0.26,0,0,1-.25-0.31,1.61,1.61,0,0,1,3.19.14,2.91,2.91,0,0,1-.87,1.89L108.3,21.3l-0.18.18h2.07l0.33-.61Z"/></g></g></g></g></g></g></g></g></g></svg>