<svg id="Layer_1" data-name="Layer 1" xmlns="http://www.w3.org/2000/svg" viewBox="0 0 384 288"><defs><style>.cls-1{fill:#fff;}</style></defs><title>photo_guide-other3</title><path class="cls-1" d="M417.5,160H355.8c-32.1-36-42.2-48-54.5-48H212.8c-12.3,0-22.2,12-54.5,48H145V144H111v16H97.5C79.9,160,64,173.2,64,190.7v176C64,384.2,79.9,400,97.5,400h320c17.6,0,30.5-15.8,30.5-33.3v-176C448,173.2,435.1,160,417.5,160ZM256,360.5A85.5,85.5,0,1,1,341.5,275,85.65,85.65,0,0,1,256,360.5ZM369,209H352V192h17v17Z" transform="translate(-64 -112)"/><path class="cls-1" d="M256,205.5A69.5,69.5,0,1,0,325.5,275,69.48,69.48,0,0,0,256,205.5ZM256,307a32,32,0,1,1,32-32A32,32,0,0,1,256,307Z" transform="translate(-64 -112)"/></svg>