<svg id="Layer_1" data-name="Layer 1" xmlns="http://www.w3.org/2000/svg" viewBox="0 0 128 80"><defs><style>.cls-1{fill:#fff;}.cls-2{isolation:isolate;}</style></defs><title>photo_guide-govid</title><g id="Mobile"><g id="_99-Photo-Grid" data-name="99-Photo-Grid"><g id="Photo-Grid"><g id="Row-1"><g id="Photo-Tile-Copy-2"><g id="Front"><g id="ID"><path class="cls-1" d="M122,0H6A6,6,0,0,0,0,6V74a6,6,0,0,0,6,6H122a6,6,0,0,0,6-6V6A6,6,0,0,0,122,0Zm-1,71H8V8H121V71Z"/><path id="Photo" class="cls-1" d="M34.22,36.76a12,12,0,1,0-10.44,0C12.67,40,13.92,54.29,13.92,63.52h30C43.92,54.3,45.29,40,34.22,36.76ZM10,11H48V68.89H10V11Z"/><path id="Data" class="cls-1" d="M112.71,50a3,3,0,0,0,0-6H55a3,3,0,0,0,0,6h57.71Zm0-16a3,3,0,0,0,0-6H55a3,3,0,0,0,0,6h57.71Zm0-14a3,3,0,0,0,0-6H55a3,3,0,0,0,0,6h57.71Z"/><g id="Type-something" class="cls-2"><g class="cls-2"><path class="cls-1" d="M77.08,61.76H75.84l-0.47.48L75,62.62l-0.3.3-0.3.28a0.36,0.36,0,0,1-.16.09s-0.07,0-.07-0.08A0.41,0.41,0,0,1,74.24,63a1.42,1.42,0,0,1,.16-0.22,1.16,1.16,0,0,1,.19-0.18,0.21,0.21,0,0,1,.17-0.06l0.77-.79H75.09l-0.08,0A0.1,0.1,0,0,1,75,61.64a0.23,0.23,0,0,1,0-.11l0.11-.13,0.15-.12a0.53,0.53,0,0,1,.16-0.08l0.17,0a1.12,1.12,0,0,1,.28,0c0.12,0,0,0-.31.08l-0.07,0-0.09.09-0.08.1a0.17,0.17,0,0,0,0,.07h0.43q0.67-.66,1.33-1.2a8,8,0,0,1,1.35-.91,0.41,0.41,0,0,1,0,.49l-0.25.42L78,60.72l-0.23.38-0.24.41h0.43a0.05,0.05,0,0,1,0,.06v0l0,0-0.08.08-0.48,0c-0.11.2-.19,0.37-0.26,0.5l-0.16.35a0.18,0.18,0,0,0,0,.17,0.19,0.19,0,0,0,.16,0l0.16-.08,0.12-.07,0.12-.07,0.17-.1,0,0.14-0.2.15-0.15.12a2.53,2.53,0,0,1-.34.22,0.45,0.45,0,0,1-.2.06A0.12,0.12,0,0,1,76.59,63a0.44,0.44,0,0,1,0-.25c0-.05.05-0.16,0.12-0.32a7.59,7.59,0,0,1,.35-0.71h0Zm0.15-.25,0.6-1q0.29-.48.48-0.83a5.28,5.28,0,0,0-.53.35l-0.61.48-0.6.52q-0.29.27-.5,0.49Z"/><path class="cls-1" d="M80,62.32a1.53,1.53,0,0,1-.92.75,0.33,0.33,0,0,1-.3-0.21,1.27,1.27,0,0,1-.11-0.49,2,2,0,0,1,.13-0.73A4.54,4.54,0,0,1,79,61.06a5.42,5.42,0,0,1,.32-0.55,4.08,4.08,0,0,1,.34-0.45A1.47,1.47,0,0,1,80,59.78a0.17,0.17,0,0,1,.17,0,0.3,0.3,0,0,1,0,.21,2,2,0,0,1-.31.93,4.74,4.74,0,0,1-.41.61,6.3,6.3,0,0,1-.64.7,1.13,1.13,0,0,0,0,.27,0.67,0.67,0,0,0,0,.22,0.28,0.28,0,0,0,.1.13,0.15,0.15,0,0,0,.15,0l0.15-.09,0.16-.12,0.2-.19,0.3-.29v0.2Zm-1.06-.44a3.18,3.18,0,0,0,.33-0.34,5.14,5.14,0,0,0,.33-0.45,4.44,4.44,0,0,0,.28-0.48A1.47,1.47,0,0,0,80,60.19s0-.06,0-0.06a0.43,0.43,0,0,0-.21.17,3.07,3.07,0,0,0-.33.47,6.41,6.41,0,0,0-.32.6A2.55,2.55,0,0,0,78.91,61.88Z"/><path class="cls-1" d="M82.2,62.33l-0.14.14-0.11.1-0.11.08-0.14.08a1.79,1.79,0,0,1-.06.6,1.83,1.83,0,0,1-.32.6,1.75,1.75,0,0,1-.34.34,0.51,0.51,0,0,1-.27.12,0.15,0.15,0,0,1-.1,0,0.48,0.48,0,0,1-.09-0.13A0.82,0.82,0,0,1,80.46,64a1.09,1.09,0,0,1,0-.24,2,2,0,0,1,.09-0.55,6.83,6.83,0,0,1,.32-0.83,0.66,0.66,0,0,1-.17-0.17,0.21,0.21,0,0,1,0-.13A0.11,0.11,0,0,1,80.78,62a0.56,0.56,0,0,1,.22,0l0.2-.33a3.53,3.53,0,0,1,.27-0.4L81.59,61l0.13-.29,0.16-.33L82.09,60l0.12-.25a0.14,0.14,0,0,1,0-.07s0,0,0,0a0.41,0.41,0,0,1,0,.13,1.13,1.13,0,0,1,0,.21,1.21,1.21,0,0,1-.09.27q-0.11.25-.24,0.49c-0.08.16-.18,0.33-0.3,0.52l-0.17.29-0.12.21-0.1.17-0.09.15a2,2,0,0,1,.28.18l0.21,0.2,0.26-.17,0.28-.22v0.19Zm-0.71.42a1.16,1.16,0,0,1-.24-0.1L81,62.51a4.26,4.26,0,0,0-.37,1.18q0,0.41.12,0.42A0.4,0.4,0,0,0,81,64a1.52,1.52,0,0,0,.29-0.43,1.4,1.4,0,0,0,.13-0.41A3.3,3.3,0,0,0,81.49,62.75Z"/><path class="cls-1" d="M82.43,62.18A1.63,1.63,0,0,0,82.58,62a1.54,1.54,0,0,0,.12-0.23,0.18,0.18,0,0,1-.09-0.07,0.37,0.37,0,0,1,0-.14,0.34,0.34,0,0,1,0-.15,1.15,1.15,0,0,1,.18-0.23A1.25,1.25,0,0,1,83,61a0.08,0.08,0,0,1,.12,0,0.43,0.43,0,0,1,0,.14,0.85,0.85,0,0,1-.07.15l0.56-.08a0.69,0.69,0,0,1,.22,0,0.21,0.21,0,0,1,.12.1,0.17,0.17,0,0,1,0,.18l-0.08.1-0.12.13a1.74,1.74,0,0,0-.38.47,1,1,0,0,0-.11.38,0.24,0.24,0,0,0,0,.16s0.08,0,.16,0l0.17-.12,0.16-.12,0.17-.14,0.21-.18v0.18q-0.23.24-.37,0.38a2.22,2.22,0,0,1-.27.21,0.45,0.45,0,0,1-.22.08Q83,63,83,62.58a1,1,0,0,1,.16-0.46,3.9,3.9,0,0,1,.54-0.7l-0.14,0-0.18,0-0.19,0-0.16,0a3.65,3.65,0,0,1-.21.43,1.45,1.45,0,0,1-.35.4V62.18Z"/><path class="cls-1" d="M84.43,62.52a0.46,0.46,0,0,0,.13.29,0.34,0.34,0,0,0,.32,0,1.13,1.13,0,0,0,.41-0.2,4.17,4.17,0,0,0,.56-0.5v0.17a3.11,3.11,0,0,1-.59.57,0.93,0.93,0,0,1-.54.19,0.45,0.45,0,0,1-.37-0.18A1,1,0,0,1,84.28,62a1.46,1.46,0,0,1,.21-0.36,1.92,1.92,0,0,1,.32-0.31,1.85,1.85,0,0,1,.38-0.23A1,1,0,0,1,85.44,61a0.49,0.49,0,0,1,.2,0,0.27,0.27,0,0,1,.14.08,0.21,0.21,0,0,1,.05.14,0.56,0.56,0,0,1-.13.34,1.51,1.51,0,0,1-.39.34l-0.18.1-0.24.11-0.25.11-0.22.09v0.19Zm0-.38a6.39,6.39,0,0,0,.73-0.37,1,1,0,0,0,.34-0.3,0.41,0.41,0,0,0,.07-0.15,0.12,0.12,0,0,0,0-.09,0.09,0.09,0,0,0-.07,0l-0.11,0a1.77,1.77,0,0,0-.35.17,1.8,1.8,0,0,0-.29.22,1.21,1.21,0,0,0-.21.26A0.87,0.87,0,0,0,84.45,62.14Z"/><path class="cls-1" d="M87.18,62.15c-0.16.18-.3,0.33-0.43,0.46l-0.31.29a0.42,0.42,0,0,1-.16.09,0.17,0.17,0,0,1-.11-0.06A0.72,0.72,0,0,1,86,62.75a1.24,1.24,0,0,1-.1-0.24,1,1,0,0,1,0-.28,0.68,0.68,0,0,1,.16-0.41,1.94,1.94,0,0,1,.37-0.37,2.51,2.51,0,0,1,.44-0.27,0.9,0.9,0,0,1,.36-0.11,0.33,0.33,0,0,1,.14,0,0.44,0.44,0,0,1,.14.12l0.21-.36,0.19-.32,0.18-.29L88.3,60l0.1-.11,0.06,0a0.07,0.07,0,0,1,.07,0,0.11,0.11,0,0,1,0,.11l0,0.08-0.09.16-0.19.29-0.33.5a3.37,3.37,0,0,0-.24.42,4.18,4.18,0,0,0-.18.43,3.54,3.54,0,0,0-.11.39,1.44,1.44,0,0,0,0,.28,0.9,0.9,0,0,0,0,.25,0.09,0.09,0,0,0,.11,0,2.36,2.36,0,0,0,.81-0.69v0.2a1.63,1.63,0,0,1-.91.76A0.19,0.19,0,0,1,87.18,63a0.69,0.69,0,0,1-.06-0.3A2.57,2.57,0,0,1,87.18,62.15Zm0.29-.8a0.49,0.49,0,0,0-.19-0.08,0.48,0.48,0,0,0-.24,0,1.26,1.26,0,0,0-.31.16,3.51,3.51,0,0,0-.41.34,1,1,0,0,0-.15.17,0.44,0.44,0,0,0-.07.16,0.47,0.47,0,0,0,0,.17,1.69,1.69,0,0,0,0,.22,0.28,0.28,0,0,0,.12.19,0.26,0.26,0,0,0,.24-0.1,1.86,1.86,0,0,0,.22-0.21L87,62.14a2.87,2.87,0,0,0,.31-0.39A2.31,2.31,0,0,0,87.47,61.35Z"/><path class="cls-1" d="M93.67,59.76a0.15,0.15,0,0,1,0,.14l-0.21.1-0.2.1L93,60.22l-0.25.15,0.15-.17L93.1,60l0.22-.21,0.19-.16a0.63,0.63,0,0,0-.32-0.13,1.83,1.83,0,0,0-.46,0,3.11,3.11,0,0,0-.54.11,3.3,3.3,0,0,0-.56.21,1.19,1.19,0,0,0-.29.19,1.26,1.26,0,0,0-.21.24,0.75,0.75,0,0,0-.11.24,0.32,0.32,0,0,0,0,.2,0.36,0.36,0,0,0,.19.21,1,1,0,0,0,.31.08l0.24,0L92,61H92.9a0.15,0.15,0,0,1,.17.12,0.15,0.15,0,0,1-.09.15,0.73,0.73,0,0,1-.24.09,5.23,5.23,0,0,0-.54.12c-0.19.05-.38,0.11-0.56,0.18a4.13,4.13,0,0,0-.51.23,1.51,1.51,0,0,0-.37.27,0.93,0.93,0,0,0-.24.37,0.49,0.49,0,0,0,0,.34,0.45,0.45,0,0,0,.24.23,1,1,0,0,0,.48.06,3.12,3.12,0,0,0,1.28-.34,1.78,1.78,0,0,0,.76-0.88,1.46,1.46,0,0,1-.07.51,0.89,0.89,0,0,1-.24.35,1.54,1.54,0,0,1-.31.22,2.72,2.72,0,0,1-.45.19,4,4,0,0,1-.53.14,3.45,3.45,0,0,1-.57.06,1.27,1.27,0,0,1-.34,0,0.84,0.84,0,0,1-.28-0.13A0.62,0.62,0,0,1,90.3,63a0.61,0.61,0,0,1-.07-0.28,1,1,0,0,1,.26-0.63,2.22,2.22,0,0,1,.85-0.57l0.41-.14a3.82,3.82,0,0,1,.47-0.11,0.08,0.08,0,0,0,.07-0.05s0,0-.08,0l-0.64,0a1.9,1.9,0,0,1-.41-0.08,0.58,0.58,0,0,1-.25-0.16,0.54,0.54,0,0,1-.13-0.24,0.64,0.64,0,0,1,0-.29,0.88,0.88,0,0,1,.15-0.31,1.52,1.52,0,0,1,.5-0.45,3,3,0,0,1,.77-0.29l0.37-.07,0.38,0h0.34a1,1,0,0,1,.24,0,0.22,0.22,0,0,1,.13.09v0.07s0,0.08,0,.13v0.18Z"/><path class="cls-1" d="M94.2,63H94.13s0,0,0-.08a0.41,0.41,0,0,1,0-.11l0.08-.14a0.78,0.78,0,0,1,.11-0.13l0.14-.11a0.11,0.11,0,0,1,.09,0,0.09,0.09,0,0,1,0,.09,0.37,0.37,0,0,1,0,.15,0.92,0.92,0,0,1-.1.16,0.65,0.65,0,0,1-.13.13A0.22,0.22,0,0,1,94.2,63Z"/><path class="cls-1" d="M98.85,59.61a0.11,0.11,0,0,0-.13-0.12l-0.18,0-0.32.12-0.4.18-0.43.24-0.2.11-0.11,0a0,0,0,0,1,0,0,0.18,0.18,0,0,1,0-.08,0.5,0.5,0,0,1,.15-0.24,3.13,3.13,0,0,1,.49-0.38h0s0,0,0,0l-0.15.13a0.94,0.94,0,0,0-.15.19L98,59.59l0.36-.16,0.24-.08,0.17,0a0.39,0.39,0,0,1,.23.06,0.24,0.24,0,0,1,.08.2,0.58,0.58,0,0,1,0,.13,1.45,1.45,0,0,1-.08.21l-0.15.33-0.26.5-0.4.71-0.56,1,0.75-.93q0.36-.44.68-0.79t0.57-.6a3,3,0,0,1,.43-0.37,0.87,0.87,0,0,1,.33-0.16,0.11,0.11,0,0,1,.06,0l0.08,0.11,0.06,0.14a0.4,0.4,0,0,1,0,.12,0.84,0.84,0,0,1,0,.16,0.61,0.61,0,0,1-.06.15l-0.11.18-0.18.25a13.94,13.94,0,0,0-.79,1.17,4.46,4.46,0,0,0-.41.87A0.37,0.37,0,0,0,99,63s0.09,0,.2,0l0.32-.21,0.25-.19,0.23-.21,0.25-.25v0.21a5,5,0,0,1-1.06.9,0.31,0.31,0,0,1-.33,0A0.39,0.39,0,0,1,98.75,63a1.11,1.11,0,0,1,.11-0.4,6,6,0,0,1,.31-0.6q0.2-.34.46-0.75l0.56-.83a1,1,0,0,0,.15-0.27,0.61,0.61,0,0,0,0-.23,0.06,0.06,0,0,0,0,0l-0.06,0a0.84,0.84,0,0,0-.34.22,8,8,0,0,0-.63.61q-0.37.39-.82,0.93t-0.9,1.17a0.21,0.21,0,0,1-.15.11l-0.07,0-0.07-.05-0.05-.06a0.12,0.12,0,0,1,0-.06,0.27,0.27,0,0,1,0-.1,1.45,1.45,0,0,1,.11-0.18q0.19-.28.38-0.58l0.35-.59q0.16-.29.3-0.56l0.24-.48,0.16-.36A1,1,0,0,0,98.85,59.61Z"/><path class="cls-1" d="M100.92,62.52a0.46,0.46,0,0,0,.13.29,0.34,0.34,0,0,0,.32,0,1.13,1.13,0,0,0,.41-0.2,4.17,4.17,0,0,0,.56-0.5v0.17a3.11,3.11,0,0,1-.59.57,0.93,0.93,0,0,1-.54.19,0.45,0.45,0,0,1-.37-0.18,1,1,0,0,1-.08-0.89,1.46,1.46,0,0,1,.21-0.36,1.92,1.92,0,0,1,.32-0.31,1.85,1.85,0,0,1,.38-0.23,1,1,0,0,1,.25-0.08,0.49,0.49,0,0,1,.2,0,0.27,0.27,0,0,1,.14.08,0.21,0.21,0,0,1,.05.14,0.56,0.56,0,0,1-.13.34,1.51,1.51,0,0,1-.39.34l-0.18.1-0.24.11-0.25.11-0.22.09v0.19Zm0-.38a6.39,6.39,0,0,0,.73-0.37,1,1,0,0,0,.34-0.3,0.41,0.41,0,0,0,.07-0.15,0.12,0.12,0,0,0,0-.09,0.09,0.09,0,0,0-.07,0l-0.11,0a1.77,1.77,0,0,0-.35.17,1.8,1.8,0,0,0-.29.22,1.21,1.21,0,0,0-.21.26A0.87,0.87,0,0,0,100.94,62.14Z"/><path class="cls-1" d="M103.75,62.64a0.09,0.09,0,0,0,.09.12,0.21,0.21,0,0,0,.1,0l0.15-.11,0.17-.17,0.17-.19a1.08,1.08,0,0,1,.11-0.37,3.16,3.16,0,0,1,.33-0.53c0.12-.17.18-0.17,0.17,0a2,2,0,0,1-.13.46,1.74,1.74,0,0,1-.25.43,0.21,0.21,0,0,0,.23.07,0.83,0.83,0,0,0,.27-0.19v0.2a0.71,0.71,0,0,1-.19.15,0.43,0.43,0,0,1-.17,0,0.25,0.25,0,0,1-.13,0l-0.13-.09a3.46,3.46,0,0,1-.45.46,0.64,0.64,0,0,1-.34.17,0.19,0.19,0,0,1-.16-0.07,0.35,0.35,0,0,1-.05-0.21,3.27,3.27,0,0,1,.06-0.51,5.07,5.07,0,0,1-.41.5,2.06,2.06,0,0,1-.23.21,0.23,0.23,0,0,1-.16,0,0.33,0.33,0,0,1-.16-0.09,0.68,0.68,0,0,1-.14-0.19,0.87,0.87,0,0,1-.08-0.23,0.89,0.89,0,0,1,0-.23,0.68,0.68,0,0,1,0-.21,1.53,1.53,0,0,1,.11-0.21l0.18-.26,0.21-.26a1.6,1.6,0,0,1,.21-0.2,0.34,0.34,0,0,1,.17-0.08s0.07,0,.07,0a0.36,0.36,0,0,1,0,.11l-0.08.14-0.16.19-0.15.17-0.16.18-0.19.2a0.7,0.7,0,0,0,0,.17c0,0.05,0,.1,0,0.14a0.41,0.41,0,0,0,.07.26,0.19,0.19,0,0,0,.15.1l0.07,0,0.11-.08,0.16-.15,0.22-.24,0.16-.19,0.18-.22,0.2-.28,0.24-.36a0.07,0.07,0,0,1,0,0h0.06l0.06,0a0.09,0.09,0,0,1,0,.06l-0.06.13a2.62,2.62,0,0,1-.16.29c-0.08.13-.15,0.25-0.2,0.34a1.67,1.67,0,0,0-.11.24,1,1,0,0,0,0,.2C103.75,62.51,103.75,62.57,103.75,62.64Z"/><path class="cls-1" d="M106.48,62.62l0.38-.36,0.33-.31,0.6-.56a0.7,0.7,0,0,1,.24-0.17,0.12,0.12,0,0,1,.1.08,0.36,0.36,0,0,1,0,.17,0.63,0.63,0,0,1-.18.25l-0.1.13-0.12.17-0.12.19-0.11.18a1.11,1.11,0,0,0-.11.22,0.29,0.29,0,0,0,0,.14,0.05,0.05,0,0,0,.07,0,0.37,0.37,0,0,0,.16-0.08l0.35-.26,0.39-.32v0.2a7.45,7.45,0,0,1-.6.52,0.79,0.79,0,0,1-.4.18,0.18,0.18,0,0,1-.17-0.11,0.4,0.4,0,0,1,0-.3l0.06-.13,0.14-.24,0.21-.32c0.08-.12.17-0.25,0.27-0.37l-0.29.25-0.29.27-0.26.25-0.19.19-0.14.15-0.12.13-0.12.13a0.18,0.18,0,0,1-.12,0,0.08,0.08,0,0,1-.08,0,0.49,0.49,0,0,1,0-.15,0.45,0.45,0,0,1,0-.14l0.13-.26,0.21-.34,0.26-.4a0.37,0.37,0,0,0,.09-0.17,0,0,0,0,0,0-.06,0.19,0.19,0,0,0-.11.06l-0.19.17-0.26.28-0.26.3-0.22.28-0.14.19-0.09.13-0.07.08a0.11,0.11,0,0,1-.14,0,0.29,0.29,0,0,1-.14-0.17,0.89,0.89,0,0,1-.08-0.4,1,1,0,0,1,0-.14,0.52,0.52,0,0,1,0-.12l0.07-.14,0.12-.19a2,2,0,0,1,.3-0.38,0.33,0.33,0,0,1,.24-0.11c0.08,0,.13,0,0.13.06a0.24,0.24,0,0,1-.12.15l-0.14.13-0.15.14-0.1.11-0.09.13a0.9,0.9,0,0,0-.14.44c0,0.1,0,.15.11,0.15h0l0.08-.06,0.12-.14,0.19-.24c0.07-.1.16-0.2,0.25-0.31l0.3-.31a2.22,2.22,0,0,1,.31-0.24,0.61,0.61,0,0,1,.26-0.11,0.13,0.13,0,0,1,.15.1,0.34,0.34,0,0,1,0,.29q-0.1.19-.27,0.47T106.48,62.62Z"/><path class="cls-1" d="M108.81,61.66a3.81,3.81,0,0,1,.84-0.58,1.55,1.55,0,0,1,.56-0.16,0.18,0.18,0,0,1,.14,0,0.05,0.05,0,0,1,0,.09l-0.07,0-0.09,0a0.82,0.82,0,0,1,.07.15,0.44,0.44,0,0,1,0,.15,0.67,0.67,0,0,1,0,.13,0.25,0.25,0,0,1-.06.11l-0.14.21a2.55,2.55,0,0,0-.13.26c0,0.09-.07.18-0.1,0.28a1.58,1.58,0,0,0-.06.27,0.2,0.2,0,0,0,0,.14s0.06,0,.13,0a2.28,2.28,0,0,0,.3-0.21l0.53-.43v0.17a2,2,0,0,1-1,.76,0.17,0.17,0,0,1-.14-0.06,0.36,0.36,0,0,1-.05-0.22,1,1,0,0,1,0-.27,1.91,1.91,0,0,1,.17-0.43l-0.33.39a2.68,2.68,0,0,1-.31.32,0.82,0.82,0,0,1-.28.17,0.19,0.19,0,0,1-.19-0.1,1,1,0,0,1-.23-0.65A0.9,0.9,0,0,1,108.81,61.66Zm1.34-.53a1.23,1.23,0,0,0-.5.15,3.59,3.59,0,0,0-.59.42,0.7,0.7,0,0,0-.36.79,0.36,0.36,0,0,0,.15.21,0.18,0.18,0,0,0,.17-0.05,2.66,2.66,0,0,0,.3-0.28l0.29-.33,0.25-.31a2.12,2.12,0,0,0,.16-0.23,0.92,0.92,0,0,0,.09-0.19,1,1,0,0,0,0-.2h0Z"/><path class="cls-1" d="M112.7,61.55a2.72,2.72,0,0,0-.38.47,3.61,3.61,0,0,0-.26.51,0.24,0.24,0,0,0,0,.2s0.08,0,.15,0l0.32-.25,0.41-.33v0.19l-0.35.34-0.26.21-0.19.12L112,63a0.13,0.13,0,0,1-.13-0.06,0.33,0.33,0,0,1,0-.21,1.11,1.11,0,0,1,.06-0.28,1.68,1.68,0,0,1,.21-0.39l0.24-.35,0.26-.39-0.21.14a3.72,3.72,0,0,0-.31.28c-0.11.12-.23,0.25-0.36,0.39a4.6,4.6,0,0,0-.34.47,1.43,1.43,0,0,1-.17.22,0.16,0.16,0,0,1-.12.06,0.17,0.17,0,0,1-.12-0.1,0.79,0.79,0,0,1-.08-0.23,1.3,1.3,0,0,1,0-.27,0.77,0.77,0,0,1,0-.24l0.06-.11,0.08-.13,0.2-.28a1.17,1.17,0,0,1,.15-0.17l0.12-.08,0.11,0q0.13,0,.11,0a0.54,0.54,0,0,1-.13.16,2.91,2.91,0,0,0-.35.37,0.79,0.79,0,0,0-.15.38,0.46,0.46,0,0,0,0,.31s0.09,0,.15-0.07l0.22-.29,0.19-.23,0.18-.2,0.2-.2a3.77,3.77,0,0,1,.37-0.31,0.67,0.67,0,0,1,.28-0.14,0.06,0.06,0,0,1,0,0l0,0.08,0,0.09a0.48,0.48,0,0,1,0,.07A0.34,0.34,0,0,1,112.7,61.55Z"/></g></g></g></g></g></g></g></g></g></svg>