<?xml version="1.0" encoding="UTF-8" standalone="no"?>
<svg width="138px" height="99px" viewBox="0 0 138 99" version="1.1" xmlns="http://www.w3.org/2000/svg" xmlns:xlink="http://www.w3.org/1999/xlink" xmlns:sketch="http://www.bohemiancoding.com/sketch/ns">
    <!-- Generator: Sketch 3.5.2 (25235) - http://www.bohemiancoding.com/sketch -->
    <title>Icon - Damage Rear</title>
    <desc>Created with Sketch.</desc>
    <defs></defs>
    <g id="Mobile" stroke="none" stroke-width="1" fill="none" fill-rule="evenodd" sketch:type="MSPage">
        <g id="99-Photo-Grid" sketch:type="MSArtboardGroup" transform="translate(-902.000000, -1664.000000)" fill="#FFFFFF">
            <g id="Photo-Grid" sketch:type="MSLayerGroup" transform="translate(85.000000, 810.000000)">
                <g id="Row-1" sketch:type="MSShapeGroup">
                    <g id="Photo-Tile-Copy-8" transform="translate(774.000000, 775.000000)">
                        <g id="Front" transform="translate(-67.000000, -21.000000)">
                            <g id="Icon---Damage-Rear" transform="translate(110.000000, 100.000000)">
                                <path d="M10,59.7906893 L10,82 L20,82 L20,92.0073041 C20,95.8560878 23.1330757,99 26.9979204,99 L31.0020796,99 C34.8646393,99 38,95.8692634 38,92.0073041 L38,82 L110,82 L110,92.0073041 C110,95.8560878 113.133076,99 116.99792,99 L121.00208,99 C124.864639,99 128,95.8692634 128,92.0073041 L128,82 L138,82 L138,42.0070969 C138,37.5881712 134.415156,34 129.993027,34 L31.8078477,34 L30.0221886,37.1072279 L42.6962514,45.7855443 L27.511935,48.1053674 L28.6291029,63.4251906 L17.3481257,53 L10,59.7906893 Z M62,60.997152 C62,59.3418707 63.3417706,58 64.9910904,58 L83.0089096,58 C84.6608432,58 86,59.3416228 86,60.997152 L86,67.002848 C86,68.6581293 84.6582294,70 83.0089096,70 L64.9910904,70 C63.3391568,70 62,68.6583772 62,67.002848 L62,60.997152 Z M64,60.997152 L64,67.002848 C64,67.554602 64.4445226,68 64.9910904,68 L83.0089096,68 C83.5539259,68 84,67.5532915 84,67.002848 L84,60.997152 C84,60.445398 83.5554774,60 83.0089096,60 L64.9910904,60 C64.4460741,60 64,60.4467085 64,60.997152 Z M82.449236,64.85674 L81.961076,64.85674 L81.961076,65.65 L81.468848,65.65 L81.468848,64.85674 L80.236244,64.85674 L80.236244,64.494688 L81.5258,62.78206 L81.961076,62.78206 L81.961076,64.433668 L82.449236,64.433668 L82.449236,64.85674 Z M81.468848,63.530572 L80.761016,64.433668 L81.468848,64.433668 L81.468848,63.530572 Z M78.670064,65.259472 C78.7595604,65.259472 78.8415976,65.2479461 78.916178,65.224894 C78.9907584,65.2018419 79.0544897,65.1692982 79.107374,65.127262 C79.1602582,65.0852258 79.2016158,65.0364103 79.231448,64.980814 C79.2612801,64.9252177 79.276196,64.8648763 79.276196,64.799788 C79.276196,64.7184276 79.2592461,64.6499503 79.225346,64.594354 C79.1914458,64.5387577 79.1446643,64.4946881 79.085,64.462144 C79.0253357,64.4295998 78.9534684,64.406548 78.869396,64.392988 C78.7853236,64.3794279 78.6944725,64.372648 78.59684,64.372648 L78.369032,64.372648 L78.369032,64.08382 L79.052456,63.24988 L78.023252,63.24988 L78.023252,62.8024 L79.682996,62.8024 L79.682996,63.172588 L78.967028,63.990256 L79.060592,63.990256 C79.1555125,63.990256 79.2477195,64.0065278 79.337216,64.039072 C79.4267124,64.0716161 79.5060376,64.1204317 79.575194,64.18552 C79.6443503,64.2506083 79.6999458,64.3319675 79.741982,64.4296 C79.7840182,64.5272325 79.805036,64.6397793 79.805036,64.767244 C79.805036,64.9218288 79.7731703,65.0574274 79.709438,65.174044 C79.6457057,65.2906606 79.5616345,65.3889696 79.457222,65.468974 C79.3528095,65.5489784 79.2328047,65.6086418 79.097204,65.647966 C78.9616033,65.6872902 78.8219367,65.706952 78.6782,65.706952 C78.5561594,65.706952 78.4341206,65.6961041 78.31208,65.674408 C78.1900394,65.6527119 78.0720686,65.6188122 77.958164,65.572708 L78.100544,65.133364 C78.1249521,65.146924 78.1581738,65.1604839 78.20021,65.174044 C78.2422462,65.187604 78.2897057,65.2011639 78.34259,65.214724 C78.3954742,65.228284 78.4497137,65.2391319 78.50531,65.247268 C78.5609063,65.255404 78.6158237,65.259472 78.670064,65.259472 Z M77.347964,65.65 L75.533636,65.65 L75.533636,65.255404 C75.5661802,65.2282838 75.6068597,65.1923502 75.655676,65.147602 C75.7044922,65.1028538 75.7594097,65.0520043 75.82043,64.995052 C75.8814503,64.9380997 75.9458597,64.8757243 76.01366,64.807924 C76.0814603,64.7401236 76.1479037,64.6696123 76.212992,64.596388 C76.3052005,64.4933315 76.3858816,64.3997684 76.455038,64.315696 C76.5241943,64.2316236 76.5811458,64.1522984 76.625894,64.077718 C76.6706422,64.0031376 76.7038639,63.9299143 76.72556,63.858046 C76.7472561,63.7861776 76.758104,63.7122764 76.758104,63.63634 C76.758104,63.5820997 76.7459001,63.5292162 76.721492,63.477688 C76.6970839,63.4261597 76.6631842,63.3807342 76.619792,63.34141 C76.5763998,63.3020858 76.5241943,63.2708981 76.463174,63.247846 C76.4021537,63.2247939 76.3350324,63.213268 76.261808,63.213268 C76.1641755,63.213268 76.0753584,63.2281838 75.995354,63.258016 C75.9153496,63.2878481 75.8319564,63.3380196 75.745172,63.408532 L75.533636,63.034276 C75.6475406,62.9529156 75.7743253,62.8844383 75.913994,62.828842 C76.0536627,62.7732457 76.2143471,62.745448 76.396052,62.745448 C76.5126686,62.745448 76.6245375,62.7617198 76.731662,62.794264 C76.8387865,62.8268082 76.9337056,62.8749457 77.016422,62.938678 C77.0991384,63.0024103 77.1649037,63.0817355 77.21372,63.176656 C77.2625362,63.2715765 77.286944,63.3814114 77.286944,63.506164 C77.286944,63.5929484 77.2794861,63.6736296 77.26457,63.74821 C77.2496539,63.8227904 77.2266021,63.8973696 77.195414,63.97195 C77.1642258,64.0465304 77.1235462,64.1231436 77.073374,64.201792 C77.0232017,64.2804404 76.9628603,64.3658675 76.892348,64.458076 C76.8381077,64.5285883 76.7791223,64.5997776 76.71539,64.671646 C76.6516577,64.7435143 76.5886043,64.8119917 76.526228,64.87708 C76.4638517,64.9421683 76.4021543,65.0031877 76.341134,65.06014 C76.2801137,65.1170923 76.2251962,65.1645518 76.17638,65.20252 L77.347964,65.20252 L77.347964,65.65 Z M73.210808,65.20252 L73.833212,65.20252 L73.833212,63.424804 L73.296236,63.835672 L73.052156,63.510232 L73.97966,62.8024 L74.337644,62.8024 L74.337644,65.20252 L74.947844,65.20252 L74.947844,65.65 L73.210808,65.65 L73.210808,65.20252 Z M71.583608,64.889284 L71.603948,64.889284 L72.165332,62.8024 L72.742988,62.8024 L71.888708,65.65 L71.2541,65.65 L70.375412,62.8024 L70.997816,62.8024 L71.583608,64.889284 Z M68.194964,62.830876 C68.3088686,62.8091799 68.4342973,62.79223 68.571254,62.780026 C68.7082107,62.7678219 68.8444873,62.76172 68.980088,62.76172 C69.1211127,62.76172 69.2628133,62.7732459 69.405194,62.796298 C69.5475747,62.8193501 69.6757154,62.8654536 69.78962,62.93461 C69.9035246,63.0037663 69.9964097,63.1000414 70.068278,63.223438 C70.1401464,63.3468346 70.17608,63.507519 70.17608,63.705496 C70.17608,63.8790649 70.1448923,64.0275454 70.082516,64.150942 C70.0201397,64.2743386 69.9374245,64.3760376 69.834368,64.456042 C69.7313115,64.5360464 69.6140187,64.5943538 69.482486,64.630966 C69.3509534,64.6675782 69.2146767,64.685884 69.073652,64.685884 L69.008564,64.685884 C68.9787319,64.685884 68.9475442,64.685206 68.915,64.68385 C68.8824559,64.682494 68.8505902,64.68046 68.819402,64.677748 C68.7882139,64.675036 68.7658401,64.672324 68.75228,64.669612 L68.75228,65.65 L68.194964,65.65 L68.194964,62.830876 Z M69.024836,63.241744 C68.9705958,63.241744 68.9190683,63.243778 68.870252,63.247846 C68.8214358,63.251914 68.7821122,63.25666 68.75228,63.262084 L68.75228,64.18552 C68.7631281,64.188232 68.7793999,64.190944 68.801096,64.193656 C68.8227921,64.196368 68.8458439,64.198402 68.870252,64.199758 C68.8946601,64.201114 68.9183899,64.201792 68.941442,64.201792 L68.992292,64.201792 C69.0655164,64.201792 69.1380617,64.1950121 69.20993,64.181452 C69.2817984,64.1678919 69.3462077,64.1428062 69.40316,64.106194 C69.4601123,64.0695818 69.5055378,64.0187323 69.539438,63.953644 C69.5733382,63.8885557 69.590288,63.8031285 69.590288,63.69736 C69.590288,63.6078635 69.5740162,63.5339623 69.541472,63.475654 C69.5089279,63.4173457 69.4662143,63.3705642 69.41333,63.335308 C69.3604458,63.3000518 69.3001044,63.2756441 69.232304,63.262084 C69.1645037,63.2485239 69.0953484,63.241744 69.024836,63.241744 Z M65.798912,62.8024 L67.605104,62.8024 L67.605104,63.298696 L66.356228,63.298696 L66.356228,64.00246 L67.515608,64.00246 L67.515608,64.498756 L66.356228,64.498756 L66.356228,65.65 L65.798912,65.65 L65.798912,62.8024 Z M16.5737745,48.5 L9.19775094,55.3164708 L9.92820691,45.2996633 L7.77156117e-16,43.7828559 L8.28688725,38.1085721 L3.28263931,29.4006734 L12.8857627,32.3417646 L16.5737745,23 L20.2617863,32.3417646 L29.8649097,29.4006734 L24.8606618,38.1085721 L33.147549,43.7828559 L23.2193421,45.2996633 L23.9497981,55.3164708 L16.5737745,48.5 Z" id="Rectangle-486"></path>
                                <path d="M34.2468762,40 L119.992674,40 C124.422043,40 126.958372,36.5741691 125.673459,32.3481924 L118.165607,7.6554595 C116.879997,3.42719097 112.257843,0 107.841551,0 L39.6431704,0 C35.2374231,0 30.6446224,3.44179004 29.4084164,7.68745323 L23.4516361,28.1455978 L30.3126272,26.044323 L35.1691862,9.3648116 L35.1691862,9.3648116 C35.6586924,7.68363667 37.9018112,6 39.6431704,6 L107.841551,6 C109.615977,6 111.907739,7.69934705 112.425089,9.40087019 L119.932942,34.0936031 C120.001879,34.3203304 120.014104,34.4557578 120.007089,34.5066056 C120.017928,34.4280435 120.06744,34.3049431 120.156964,34.1842548 C120.24617,34.0639943 120.348775,33.9815587 120.419338,33.9490551 C120.370277,33.971654 120.233803,34 119.992674,34 L31.8078477,34 L30.0221886,37.1072279 L34.2468762,40 Z M16.5737745,48.5 L9.19775094,55.3164708 L9.92820691,45.2996633 L7.77156117e-16,43.7828559 L8.28688725,38.1085721 L3.28263931,29.4006734 L12.8857627,32.3417646 L16.5737745,23 L20.2617863,32.3417646 L29.8649097,29.4006734 L24.8606618,38.1085721 L33.147549,43.7828559 L23.2193421,45.2996633 L23.9497981,55.3164708 L16.5737745,48.5 Z" id="Shape"></path>
                            </g>
                        </g>
                    </g>
                </g>
            </g>
        </g>
    </g>
</svg>