<svg id="Layer_1" data-name="Layer 1" xmlns="http://www.w3.org/2000/svg" viewBox="0 0 128 85"><defs><style>.cls-1{fill:#fff;}.cls-2{isolation:isolate;}</style></defs><title>photo_guide-vinFromVehicle</title><g id="Mobile"><g id="_99-Photo-Grid" data-name="99-Photo-Grid"><g id="Photo-Grid"><g id="Row-1"><g id="Photo-Tile-Copy-5"><g id="VIN"><g id="Icon---Windscreen-VIN"><path id="Combined-Shape" class="cls-1" d="M17.84,5.39S29.36,0,64.59,0s45.59,5.34,45.59,5.34A10.31,10.31,0,0,1,118,15l10,57a7.23,7.23,0,0,1-8,7.33S82.75,76,64.12,76,8,79.33,8,79.33A7.22,7.22,0,0,1,0,72L10,15A10.19,10.19,0,0,1,17.84,5.39ZM6,72a1.23,1.23,0,0,0,1.43,1.36l0.43,0,1.23-.11,4.52-.38c4.78-.39,9.84-0.78,15-1.15,4.24-.3,8.35-0.57,12.27-0.8C50.35,70.31,58.26,70,64.12,70s13.71,0.31,23.15.87c3.9,0.23,8,.5,12.22.8,5.12,0.37,10.17.76,14.92,1.15l4.5,0.38,1.22,0.11,0.4,0A1.24,1.24,0,0,0,122,72L112,15a4.36,4.36,0,0,0-3.07-3.8L107.88,11q-1.09-.25-2.62-0.57c-3-.6-6.46-1.21-10.49-1.77C83.17,7,79.72,6,64.59,6S45.79,7,33.82,8.64c-4.17.57-7.81,1.19-10.91,1.79q-1.61.32-2.77,0.58l-0.85.2A4.31,4.31,0,0,0,16,15Z"/><path id="Rearview-Mirror" class="cls-1" d="M52.37,15.9A3,3,0,0,1,55,14H73a3,3,0,0,1,2.62,1.9l0.73,2.2A1.35,1.35,0,0,1,75,20H53a1.35,1.35,0,0,1-1.36-1.9Z"/><path id="Wipers" class="cls-1" d="M112,83.35l-1.65-.17c-2.31-.24-4.72-0.48-7.1-0.7l-3.34-.3c-3.78-.33-6.92-0.56-9.22-0.66s-5.57-.15-9.43-0.15c-3,0-6.3,0-9.55.07l-3.06,0-0.85,0h-0.3l-1,0,0-2,1,0h0.3l0.86,0,3.06,0c3.26,0,6.53-.07,9.58-0.07,3.89,0,7.13,0,9.52.15s5.5,0.33,9.31.66l3.36,0.3c2.39,0.22,4.8.46,7.12,0.7l2.19,0.23A2,2,0,1,1,112,83.35Zm-55,0-1.67-.17c-2.32-.24-4.74-0.48-7.14-0.7l-3.36-.3c-3.8-.33-7-0.56-9.27-0.66s-5.54-.15-9.39-0.15c-3,0-6.24,0-9.47.07l-3.07,0-0.86,0h-0.3l-1,0,0-2,1,0h0.31l0.86,0,3.08,0c3.23,0,6.47-.07,9.49-0.07,3.87,0,7.1,0,9.47.15s5.53,0.33,9.35.67l3.37,0.3c2.4,0.22,4.83.47,7.16,0.71l2.21,0.23A2,2,0,1,1,57,83.35Z"/><g id="Title-VIN" class="cls-2"><g class="cls-2"><path class="cls-1" d="M36.75,60.07v0.46H36.11l0.52,3.57h0l0.91-2.56,0.91,2.56h0L39,60.53H38.36V60.07h1.49v0.46H39.5L38.83,65.1H38.34L37.55,63,36.77,65.1H36.28l-0.67-4.57H35.26V60.07h1.49Z"/><path class="cls-1" d="M41,60.59l-0.65-.14,0-.39a6.28,6.28,0,0,0,.78.1c0.32,0,.63-0.1,1-0.1,1.19,0,2.2.77,2.2,2.5s-0.9,2.43-2,2.43a10,10,0,0,0-1.1,0l-0.85.1-0.07-.46L41,64.54V60.59Zm0.51,3.95h0.82c0.89,0,1.49-.49,1.49-1.87,0-1.64-1-2.22-1.72-2.14l-0.59.07v3.95Z"/><path class="cls-1" d="M46,60.59l-0.65-.14,0-.39a6.28,6.28,0,0,0,.78.1c0.32,0,.63-0.1,1-0.1,1.19,0,2.2.77,2.2,2.5s-0.9,2.43-2,2.43a10,10,0,0,0-1.1,0l-0.85.1-0.07-.46L46,64.54V60.59Zm0.51,3.95H47.3c0.89,0,1.49-.49,1.49-1.87,0-1.64-1-2.22-1.72-2.14l-0.59.07v3.95Z"/><path class="cls-1" d="M54,64.11L53.57,65H50.75V64.55l1.56-1.67a2.74,2.74,0,0,0,.83-1.61,0.87,0.87,0,0,0-.9-0.84,0.94,0.94,0,0,0-.74.32,0.54,0.54,0,0,1-.43.65,0.23,0.23,0,0,1-.22-0.27,1.43,1.43,0,0,1,2.82.12,2.56,2.56,0,0,1-.77,1.67l-1.34,1.46-0.16.16h1.83L53.53,64Z"/><path class="cls-1" d="M59,62.53c0,1.88-.85,2.57-1.7,2.57s-1.7-.68-1.7-2.57S56.42,60,57.28,60,59,60.65,59,62.53Zm-1.7-2.11c-1,0-1.17,1.35-1.17,2.11s0.15,2.11,1.17,2.11,1.17-1.35,1.17-2.11S58.3,60.43,57.28,60.43Z"/><path class="cls-1" d="M63.34,61.54v1.72H64v0.46H63.34v0.82H64V65H62V64.54h0.82V63.72H60.42V63.27a13.46,13.46,0,0,0,1.64-3.59l0.51,0.14a12.75,12.75,0,0,1-1.63,3.43h1.89V61.54h0.51Z"/><path class="cls-1" d="M68.79,64.11L68.37,65H65.54V64.55l1.56-1.67a2.74,2.74,0,0,0,.83-1.61,0.87,0.87,0,0,0-.9-0.84,0.94,0.94,0,0,0-.74.32,0.54,0.54,0,0,1-.43.65,0.23,0.23,0,0,1-.22-0.27,1.43,1.43,0,0,1,2.82.12,2.56,2.56,0,0,1-.77,1.67l-1.34,1.46-0.16.16H68L68.32,64Z"/><path class="cls-1" d="M73.77,62.53c0,1.88-.85,2.57-1.7,2.57s-1.7-.68-1.7-2.57S71.21,60,72.07,60,73.77,60.65,73.77,62.53Zm-1.7-2.11c-1,0-1.17,1.35-1.17,2.11s0.15,2.11,1.17,2.11,1.17-1.35,1.17-2.11S73.09,60.43,72.07,60.43Z"/><path class="cls-1" d="M78.65,64.11L78.23,65H75.41V64.55L77,62.88a2.74,2.74,0,0,0,.83-1.61,0.87,0.87,0,0,0-.9-0.84,0.94,0.94,0,0,0-.74.32,0.54,0.54,0,0,1-.43.65,0.23,0.23,0,0,1-.22-0.27,1.43,1.43,0,0,1,2.82.12,2.56,2.56,0,0,1-.77,1.67l-1.34,1.46-0.16.16H77.9L78.19,64Z"/><path class="cls-1" d="M82.27,64.54h1.1V65H80.58V64.54h1.18V60.68a3.67,3.67,0,0,1-.85.08l-0.23,0L80.6,60.3a3.07,3.07,0,0,0,.77,0,0.74,0.74,0,0,0,.44-0.2A0.27,0.27,0,0,1,82,60c0.26,0,.25.25,0.25,0.43v4.14Z"/><path class="cls-1" d="M88.74,60.07V61.5H88.23V61.28c0-.66,0-0.76-0.68-0.76H86.16v1.69h1.13v-0.7H87.8v1.93H87.29V62.67H86.16v1.87h1.45V65H84.85V64.54h0.81v-4H84.85V60.07h3.89Z"/><path class="cls-1" d="M90.54,64.61l0.42,0a1.94,1.94,0,0,0,1.91-1.86h0a1.63,1.63,0,0,1-1.11.48,1.55,1.55,0,0,1-1.55-1.6A1.61,1.61,0,0,1,91.77,60c0.66,0,1.63.46,1.63,2.11s-0.76,3-2.46,3l-0.4,0V64.61Zm1.26-4.19a1.13,1.13,0,0,0-1.07,1.18,1.08,1.08,0,1,0,2.14,0A1.13,1.13,0,0,0,91.79,60.43Z"/><path class="cls-1" d="M97.41,62.3a1.36,1.36,0,0,1,.75,1.27,1.55,1.55,0,0,1-1.69,1.53,3,3,0,0,1-1.55-.39l0.21-.41a2.61,2.61,0,0,0,1.31.34,1,1,0,0,0,1.19-1,1,1,0,0,0-1.05-1.05l-0.42,0v-0.5a1.79,1.79,0,0,0,.3,0,0.78,0.78,0,0,0,.93-0.76,0.84,0.84,0,0,0-.86-0.93,0.88,0.88,0,0,0-.57.2,0.59,0.59,0,0,1-.49.59,0.24,0.24,0,0,1-.24-0.27,0.92,0.92,0,0,1,.39-0.66,1.57,1.57,0,0,1,1-.32,1.3,1.3,0,0,1,1.32,1.33,1.16,1.16,0,0,1-.5,1h0Z"/><path class="cls-1" d="M102.81,60.53h-1.89l-0.1,1.13,0.47,0A1.59,1.59,0,0,1,103,63.24a1.88,1.88,0,0,1-2,1.86,3.34,3.34,0,0,1-1.2-.24l0.13-.44a2.64,2.64,0,0,0,1,.22,1.38,1.38,0,0,0,1.51-1.38,1.12,1.12,0,0,0-1.2-1.18,3.52,3.52,0,0,0-1,.16l0.17-2.17h2.35v0.46Z"/><path class="cls-1" d="M107.74,60.53h-1.89l-0.1,1.13,0.47,0A1.59,1.59,0,0,1,108,63.24a1.88,1.88,0,0,1-2,1.86,3.34,3.34,0,0,1-1.2-.24l0.13-.44a2.64,2.64,0,0,0,1,.22,1.38,1.38,0,0,0,1.51-1.38,1.12,1.12,0,0,0-1.2-1.18,3.52,3.52,0,0,0-1,.16l0.17-2.17h2.35v0.46Z"/><path class="cls-1" d="M112.2,62.3a1.36,1.36,0,0,1,.75,1.27,1.55,1.55,0,0,1-1.69,1.53,3,3,0,0,1-1.55-.39l0.21-.41a2.61,2.61,0,0,0,1.31.34,1,1,0,0,0,1.19-1,1,1,0,0,0-1.05-1.05l-0.42,0v-0.5a1.79,1.79,0,0,0,.3,0,0.78,0.78,0,0,0,.93-0.76,0.83,0.83,0,0,0-.86-0.93,0.89,0.89,0,0,0-.57.2,0.59,0.59,0,0,1-.48.59,0.24,0.24,0,0,1-.24-0.27,0.92,0.92,0,0,1,.4-0.66,1.56,1.56,0,0,1,1-.32,1.3,1.3,0,0,1,1.32,1.33,1.16,1.16,0,0,1-.5,1h0Z"/><path class="cls-1" d="M118.09,64.11l-0.42.89h-2.82V64.55l1.56-1.67a2.74,2.74,0,0,0,.83-1.61,0.87,0.87,0,0,0-.9-0.84,0.94,0.94,0,0,0-.74.32,0.54,0.54,0,0,1-.43.65,0.23,0.23,0,0,1-.22-0.27,1.43,1.43,0,0,1,2.82.12,2.57,2.57,0,0,1-.76,1.67l-1.34,1.46-0.16.16h1.83l0.29-.54Z"/></g></g></g></g></g></g></g></g></g></svg>