<?xml version="1.0" encoding="UTF-8" standalone="no"?>
<svg width="78px" height="128px" viewBox="0 0 78 128" version="1.1" xmlns="http://www.w3.org/2000/svg" xmlns:xlink="http://www.w3.org/1999/xlink" xmlns:sketch="http://www.bohemiancoding.com/sketch/ns">
    <!-- Generator: Sketch 3.5.2 (25235) - http://www.bohemiancoding.com/sketch -->
    <title>Borrower</title>
    <desc>Created with Sketch.</desc>
    <defs></defs>
    <g id="Mobile" stroke="none" stroke-width="1" fill="none" fill-rule="evenodd" sketch:type="MSPage">
        <g id="99-Photo-Grid" sketch:type="MSArtboardGroup" transform="translate(-690.000000, -1396.000000)" fill="#FFFFFF">
            <g id="Photo-Grid" sketch:type="MSLayerGroup" transform="translate(85.000000, 811.000000)">
                <g id="Row-1" sketch:type="MSShapeGroup">
                    <g id="Photo-Tile-Copy-3" transform="translate(516.000000, 516.000000)">
                        <g id="Front" transform="translate(-67.000000, -21.000000)">
                            <g id="Borrower" transform="translate(131.000000, 90.000000)">
                                <path d="M77.7154213,58.8366171 C88.1188877,53.8301132 95.2947463,43.2258771 95.2947463,30.9535352 C95.2947463,13.8583698 81.3706954,0 64.1945081,0 C47.0183208,0 33.0942698,13.8583698 33.0942698,30.9535352 C33.0942698,43.2234158 40.2672505,53.8258598 50.6673359,58.8336042 C21.87485,67.2816271 25.1088156,104.157342 25.1088156,128 L64.1945081,128 L102.859411,128 C102.859411,104.160175 106.41903,67.2903908 77.7154213,58.8366171 Z M64.1945081,50.7702568 C75.2978997,50.7702568 78.1945081,43.7702568 78.1945081,43.7702568 L50.1945081,43.7702568 C50.1945081,43.7702568 53.0911164,50.7702568 64.1945081,50.7702568 Z" id="Photo"></path>
                            </g>
                        </g>
                    </g>
                </g>
            </g>
        </g>
    </g>
</svg>