<?xml version="1.0" encoding="UTF-8" standalone="no"?>
<svg width="128px" height="82px" viewBox="0 0 128 82" version="1.1" xmlns="http://www.w3.org/2000/svg" xmlns:xlink="http://www.w3.org/1999/xlink" xmlns:sketch="http://www.bohemiancoding.com/sketch/ns">
    <!-- Generator: Sketch 3.5.2 (25235) - http://www.bohemiancoding.com/sketch -->
    <title>Icon - Driver Side</title>
    <desc>Created with Sketch.</desc>
    <defs></defs>
    <g id="Mobile" stroke="none" stroke-width="1" fill="none" fill-rule="evenodd" sketch:type="MSPage">
        <g id="4-WiP-Vehicle-Eval-Full" sketch:type="MSArtboardGroup" transform="translate(-87.000000, -8571.000000)" fill="#FFFFFF">
            <g id="Vehicle-Eval-Questions" sketch:type="MSLayerGroup" transform="translate(0.000000, 160.000000)">
                <g id="Condition---Body" transform="translate(50.000000, 8164.000000)" sketch:type="MSShapeGroup">
                    <g id="3-Condition-Rating" transform="translate(0.000000, 172.000000)">
                        <g id="Condition-A-+-Icon---Front-+-Sparkle">
                            <g id="Icon" transform="translate(26.000000, 39.000000)">
                                <g id="Icon---Driver-Side" transform="translate(75.000000, 77.000000) scale(-1, 1) translate(-75.000000, -77.000000) translate(11.000000, 36.000000)">
                                    <path d="M7.67614406,65.9932998 C3.40742602,65.820078 -1.43467444e-09,62.3098714 -3.1100425e-09,57.9998004 L-1.14698965e-08,36.4931448 C-1.31873686e-08,32.0747565 3.13498392,26.7687048 7.14551468,24.91463 C7.14551468,24.91463 7.5496945,24 10.7150078,24 C28.1842793,24 87.4614005,24 94.9738164,24 C103.847431,24 121.231331,35.7651145 121.231331,35.7651145 C124.969567,38.1200078 128.000006,43.6129117 128.000004,48.0330895 L128.000002,57.9959366 C128.000001,61.9217749 125.167935,65.1874776 121.440747,65.869219 C120.386762,56.9323762 112.785725,50 103.565545,50 C94.3004373,50 86.6702907,57.0000991 85.6754021,66 L43.455687,66 C42.4607984,57.0000991 34.8306519,50 25.5655446,50 C16.3027366,50 8.67407797,56.9966251 7.67614406,65.9932998 Z M25.5,82 C32.9558441,82 39,75.9558441 39,68.5 C39,61.0441559 32.9558441,55 25.5,55 C18.0441559,55 12,61.0441559 12,68.5 C12,75.9558441 18.0441559,82 25.5,82 Z M103.5,82 C110.955844,82 117,75.9558441 117,68.5 C117,61.0441559 110.955844,55 103.5,55 C96.0441559,55 90,61.0441559 90,68.5 C90,75.9558441 96.0441559,82 103.5,82 Z" id="Body"></path>
                                    <path d="M34,8.5 L34,44.5138855 L34,47.5138855 L40,47.5138855 L40,44.5138855 L40,8.5 L40,5.5 L34,5.5 L34,8.5 L34,8.5 Z" id="Shape"></path>
                                    <path d="M97.6369491,25.9713327 C97.6153111,25.9784808 97.5662407,25.9948828 97.4880032,26.0259772 C96.6553409,26.3569071 95.7678184,27.1482433 95.2890841,28.4634881 C94.8066978,29.7887657 94.9831616,30.982096 95.4205072,31.7823258 C95.484831,31.9000219 95.5196318,31.9481438 95.5171616,31.9453718 C95.4345201,31.8526329 95.2965324,31.7216922 95.104626,31.5636315 L98.9191592,26.9322887 L95.320841,31.7335495 L65.7584531,9.57774345 C63.2393583,7.71784944 58.0148271,6 54.8745113,6 L27.2348197,6 C25.231704,6 22.4716752,7.8448228 21.7061276,9.69185677 L21.7096998,9.68321915 L14.6257722,26.8500558 C14.5391696,27.0619642 14.5203026,27.1636235 14.519846,27.1547631 C14.5099285,26.9623144 14.4271403,26.7075584 14.2635815,26.465293 C14.1016162,26.2253881 13.9005869,26.0567801 13.7321106,25.9781629 C13.730957,25.9776246 13.8395531,26 14.0745913,26 L97.0757099,25.9999996 C97.3184281,25.9999996 97.5069287,25.987479 97.633992,25.9691165 L97.6369491,25.9713327 L97.6369491,25.9713327 Z M16.163361,7.39452404 C17.8560243,3.31064118 22.8005017,4.93038066e-32 27.2348197,0 L54.8745113,0 C59.2964458,4.93038066e-32 65.7702315,2.12828271 69.3222641,4.75081366 L98.9191592,26.9322887 C102.317293,29.7311081 101.490301,31.9999995 97.0757099,31.9999996 L14.0745914,32 C9.65834912,32 7.40161692,28.6667264 9.07169015,24.580216 L16.163361,7.39452404 L16.163361,7.39452404 Z" id="Shape"></path>
                                </g>
                            </g>
                        </g>
                    </g>
                </g>
            </g>
        </g>
    </g>
</svg>