<?xml version="1.0" encoding="UTF-8" standalone="no"?>
<svg width="128px" height="99px" viewBox="0 0 128 99" version="1.1" xmlns="http://www.w3.org/2000/svg" xmlns:xlink="http://www.w3.org/1999/xlink" xmlns:sketch="http://www.bohemiancoding.com/sketch/ns">
    <!-- Generator: Sketch 3.5.2 (25235) - http://www.bohemiancoding.com/sketch -->
    <title>Icon - Vehicle Rear</title>
    <desc>Created with Sketch.</desc>
    <defs></defs>
    <g id="Mobile" stroke="none" stroke-width="1" fill="none" fill-rule="evenodd" sketch:type="MSPage">
        <g id="99-Photo-Grid" sketch:type="MSArtboardGroup" transform="translate(-417.000000, -889.000000)" fill="#FFFFFF">
            <g id="Photo-Grid" sketch:type="MSLayerGroup" transform="translate(85.000000, 810.000000)">
                <g id="Row-1" sketch:type="MSShapeGroup">
                    <g id="Photo-Tile" transform="translate(258.000000, 0.000000)">
                        <g id="Rear" transform="translate(-55.000000, -21.000000)">
                            <g id="Icon---Vehicle-Rear" transform="translate(129.000000, 100.000000)">
                                <path d="M100,82 L28,82 L28,92.0073041 C28,95.8692634 24.8646393,99 21.0020796,99 L16.9979204,99 C13.1330757,99 10,95.8560878 10,92.0073041 L10,82 L0,82 L0,42.0070969 C0,37.5848994 3.59075293,34 8.00697327,34 L119.993027,34 C124.415156,34 128,37.5881712 128,42.0070969 L128,82 L118,82 L118,92.0073041 C118,95.8692634 114.864639,99 111.00208,99 L106.99792,99 C103.133076,99 100,95.8560878 100,92.0073041 L100,82 Z M52,60.997152 C52,59.3418707 53.3417706,58 54.9910904,58 L73.0089096,58 C74.6608432,58 76,59.3416228 76,60.997152 L76,67.002848 C76,68.6581293 74.6582294,70 73.0089096,70 L54.9910904,70 C53.3391568,70 52,68.6583772 52,67.002848 L52,60.997152 Z M54,60.997152 L54,67.002848 C54,67.554602 54.4445226,68 54.9910904,68 L73.0089096,68 C73.5539259,68 74,67.5532915 74,67.002848 L74,60.997152 C74,60.445398 73.5554774,60 73.0089096,60 L54.9910904,60 C54.4460741,60 54,60.4467085 54,60.997152 Z M72.449236,64.85674 L71.961076,64.85674 L71.961076,65.65 L71.468848,65.65 L71.468848,64.85674 L70.236244,64.85674 L70.236244,64.494688 L71.5258,62.78206 L71.961076,62.78206 L71.961076,64.433668 L72.449236,64.433668 L72.449236,64.85674 Z M71.468848,63.530572 L70.761016,64.433668 L71.468848,64.433668 L71.468848,63.530572 Z M68.670064,65.259472 C68.7595604,65.259472 68.8415976,65.2479461 68.916178,65.224894 C68.9907584,65.2018419 69.0544897,65.1692982 69.107374,65.127262 C69.1602582,65.0852258 69.2016158,65.0364103 69.231448,64.980814 C69.2612801,64.9252177 69.276196,64.8648763 69.276196,64.799788 C69.276196,64.7184276 69.2592461,64.6499503 69.225346,64.594354 C69.1914458,64.5387577 69.1446643,64.4946881 69.085,64.462144 C69.0253357,64.4295998 68.9534684,64.406548 68.869396,64.392988 C68.7853236,64.3794279 68.6944725,64.372648 68.59684,64.372648 L68.369032,64.372648 L68.369032,64.08382 L69.052456,63.24988 L68.023252,63.24988 L68.023252,62.8024 L69.682996,62.8024 L69.682996,63.172588 L68.967028,63.990256 L69.060592,63.990256 C69.1555125,63.990256 69.2477195,64.0065278 69.337216,64.039072 C69.4267124,64.0716161 69.5060376,64.1204317 69.575194,64.18552 C69.6443503,64.2506083 69.6999458,64.3319675 69.741982,64.4296 C69.7840182,64.5272325 69.805036,64.6397793 69.805036,64.767244 C69.805036,64.9218288 69.7731703,65.0574274 69.709438,65.174044 C69.6457057,65.2906606 69.5616345,65.3889696 69.457222,65.468974 C69.3528095,65.5489784 69.2328047,65.6086418 69.097204,65.647966 C68.9616033,65.6872902 68.8219367,65.706952 68.6782,65.706952 C68.5561594,65.706952 68.4341206,65.6961041 68.31208,65.674408 C68.1900394,65.6527119 68.0720686,65.6188122 67.958164,65.572708 L68.100544,65.133364 C68.1249521,65.146924 68.1581738,65.1604839 68.20021,65.174044 C68.2422462,65.187604 68.2897057,65.2011639 68.34259,65.214724 C68.3954742,65.228284 68.4497137,65.2391319 68.50531,65.247268 C68.5609063,65.255404 68.6158237,65.259472 68.670064,65.259472 Z M67.347964,65.65 L65.533636,65.65 L65.533636,65.255404 C65.5661802,65.2282838 65.6068597,65.1923502 65.655676,65.147602 C65.7044922,65.1028538 65.7594097,65.0520043 65.82043,64.995052 C65.8814503,64.9380997 65.9458597,64.8757243 66.01366,64.807924 C66.0814603,64.7401236 66.1479037,64.6696123 66.212992,64.596388 C66.3052005,64.4933315 66.3858816,64.3997684 66.455038,64.315696 C66.5241943,64.2316236 66.5811458,64.1522984 66.625894,64.077718 C66.6706422,64.0031376 66.7038639,63.9299143 66.72556,63.858046 C66.7472561,63.7861776 66.758104,63.7122764 66.758104,63.63634 C66.758104,63.5820997 66.7459001,63.5292162 66.721492,63.477688 C66.6970839,63.4261597 66.6631842,63.3807342 66.619792,63.34141 C66.5763998,63.3020858 66.5241943,63.2708981 66.463174,63.247846 C66.4021537,63.2247939 66.3350324,63.213268 66.261808,63.213268 C66.1641755,63.213268 66.0753584,63.2281838 65.995354,63.258016 C65.9153496,63.2878481 65.8319564,63.3380196 65.745172,63.408532 L65.533636,63.034276 C65.6475406,62.9529156 65.7743253,62.8844383 65.913994,62.828842 C66.0536627,62.7732457 66.2143471,62.745448 66.396052,62.745448 C66.5126686,62.745448 66.6245375,62.7617198 66.731662,62.794264 C66.8387865,62.8268082 66.9337056,62.8749457 67.016422,62.938678 C67.0991384,63.0024103 67.1649037,63.0817355 67.21372,63.176656 C67.2625362,63.2715765 67.286944,63.3814114 67.286944,63.506164 C67.286944,63.5929484 67.2794861,63.6736296 67.26457,63.74821 C67.2496539,63.8227904 67.2266021,63.8973696 67.195414,63.97195 C67.1642258,64.0465304 67.1235462,64.1231436 67.073374,64.201792 C67.0232017,64.2804404 66.9628603,64.3658675 66.892348,64.458076 C66.8381077,64.5285883 66.7791223,64.5997776 66.71539,64.671646 C66.6516577,64.7435143 66.5886043,64.8119917 66.526228,64.87708 C66.4638517,64.9421683 66.4021543,65.0031877 66.341134,65.06014 C66.2801137,65.1170923 66.2251962,65.1645518 66.17638,65.20252 L67.347964,65.20252 L67.347964,65.65 Z M63.210808,65.20252 L63.833212,65.20252 L63.833212,63.424804 L63.296236,63.835672 L63.052156,63.510232 L63.97966,62.8024 L64.337644,62.8024 L64.337644,65.20252 L64.947844,65.20252 L64.947844,65.65 L63.210808,65.65 L63.210808,65.20252 Z M61.583608,64.889284 L61.603948,64.889284 L62.165332,62.8024 L62.742988,62.8024 L61.888708,65.65 L61.2541,65.65 L60.375412,62.8024 L60.997816,62.8024 L61.583608,64.889284 Z M58.194964,62.830876 C58.3088686,62.8091799 58.4342973,62.79223 58.571254,62.780026 C58.7082107,62.7678219 58.8444873,62.76172 58.980088,62.76172 C59.1211127,62.76172 59.2628133,62.7732459 59.405194,62.796298 C59.5475747,62.8193501 59.6757154,62.8654536 59.78962,62.93461 C59.9035246,63.0037663 59.9964097,63.1000414 60.068278,63.223438 C60.1401464,63.3468346 60.17608,63.507519 60.17608,63.705496 C60.17608,63.8790649 60.1448923,64.0275454 60.082516,64.150942 C60.0201397,64.2743386 59.9374245,64.3760376 59.834368,64.456042 C59.7313115,64.5360464 59.6140187,64.5943538 59.482486,64.630966 C59.3509534,64.6675782 59.2146767,64.685884 59.073652,64.685884 L59.008564,64.685884 C58.9787319,64.685884 58.9475442,64.685206 58.915,64.68385 C58.8824559,64.682494 58.8505902,64.68046 58.819402,64.677748 C58.7882139,64.675036 58.7658401,64.672324 58.75228,64.669612 L58.75228,65.65 L58.194964,65.65 L58.194964,62.830876 Z M59.024836,63.241744 C58.9705958,63.241744 58.9190683,63.243778 58.870252,63.247846 C58.8214358,63.251914 58.7821122,63.25666 58.75228,63.262084 L58.75228,64.18552 C58.7631281,64.188232 58.7793999,64.190944 58.801096,64.193656 C58.8227921,64.196368 58.8458439,64.198402 58.870252,64.199758 C58.8946601,64.201114 58.9183899,64.201792 58.941442,64.201792 L58.992292,64.201792 C59.0655164,64.201792 59.1380617,64.1950121 59.20993,64.181452 C59.2817984,64.1678919 59.3462077,64.1428062 59.40316,64.106194 C59.4601123,64.0695818 59.5055378,64.0187323 59.539438,63.953644 C59.5733382,63.8885557 59.590288,63.8031285 59.590288,63.69736 C59.590288,63.6078635 59.5740162,63.5339623 59.541472,63.475654 C59.5089279,63.4173457 59.4662143,63.3705642 59.41333,63.335308 C59.3604458,63.3000518 59.3001044,63.2756441 59.232304,63.262084 C59.1645037,63.2485239 59.0953484,63.241744 59.024836,63.241744 Z M55.798912,62.8024 L57.605104,62.8024 L57.605104,63.298696 L56.356228,63.298696 L56.356228,64.00246 L57.515608,64.00246 L57.515608,64.498756 L56.356228,64.498756 L56.356228,65.65 L55.798912,65.65 L55.798912,62.8024 Z" id="Rectangle-486"></path>
                                <path d="M19.4084164,7.68745323 C20.6446224,3.44179004 25.2374231,0 29.6431704,0 L97.8415509,0 C102.257843,0 106.879997,3.42719097 108.165607,7.6554595 L115.673459,32.3481924 C116.958372,36.5741691 114.422043,40 109.992674,40 L18.0073256,40 C13.5850018,40 11.0027669,36.5560675 12.2367531,32.3180284 L19.4084164,7.68745323 Z M25.1691862,9.3648116 L25.1691862,9.3648116 L17.9975229,33.9953867 C17.9317598,34.2212455 17.9210247,34.3593367 17.9297092,34.4173054 C17.9202837,34.35439 17.8770337,34.2496567 17.7991879,34.1459664 C17.7215441,34.0425452 17.6335707,33.9722038 17.5767286,33.9460208 C17.6315578,33.9712766 17.7693404,34 18.0073256,34 L109.992674,34 C110.233803,34 110.370277,33.971654 110.419338,33.9490551 C110.348775,33.9815587 110.24617,34.0639943 110.156964,34.1842548 C110.06744,34.3049431 110.017928,34.4280435 110.007089,34.5066056 C110.014104,34.4557578 110.001879,34.3203304 109.932942,34.0936031 L102.425089,9.40087019 C101.907739,7.69934705 99.6159773,6 97.8415509,6 L29.6431704,6 C27.9018112,6 25.6586924,7.68363667 25.1691862,9.3648116 Z" id="Shape"></path>
                            </g>
                        </g>
                    </g>
                </g>
            </g>
        </g>
    </g>
</svg>