<?xml version="1.0" encoding="utf-8"?>
<!-- Generator: Adobe Illustrator 19.2.1, SVG Export Plug-In . SVG Version: 6.00 Build 0)  -->
<svg version="1.1" id="Layer_1" xmlns:sketch="http://www.bohemiancoding.com/sketch/ns"
	 xmlns="http://www.w3.org/2000/svg" xmlns:xlink="http://www.w3.org/1999/xlink" x="0px" y="0px" viewBox="0 0 128 99"
	 style="enable-background:new 0 0 128 99;" xml:space="preserve">
<style type="text/css">
	.st0{fill:#FFFFFF;}
</style>
<g id="Icon---Vehicle-Front" transform="translate(131.000000, 100.000000)">
	<path id="Rectangle-486" class="st0" d="M-121-18h-10v-40c0-4.4,3.6-8,8-8h112c4.4,0,8,3.6,8,8v40h-10v10c0,3.9-3.1,7-7,7h-4
		c-3.9,0-7-3.1-7-7v-10h-72v10c0,3.9-3.1,7-7,7h-4c-3.9,0-7-3.1-7-7V-18z M-112-38c5,0,9-4,9-9s-4-9-9-9s-9,4-9,9S-117-38-112-38z
		 M-22-38c5,0,9-4,9-9s-4-9-9-9s-9,4-9,9S-27-38-22-38z"/>
	<path id="Shape" class="st0" d="M-107.8-91.2L-107.8-91.2L-107.8-91.2l-7.2,24.6c-0.5,1.7,0.2,2.6,1.9,2.6h92
		c1.7,0,2.4-0.8,1.9-2.5l-7.5-24.7c-0.8-2.5-3.8-4.8-6.5-4.8h-68.2C-104-96-107-93.7-107.8-91.2L-107.8-91.2z M-111.6-92.3
		c1.2-4.2,5.8-7.7,10.2-7.7h68.2c4.4,0,9,3.4,10.3,7.7l7.5,24.7C-14-63.4-16.6-60-21-60h-92c-4.4,0-7-3.4-5.8-7.7L-111.6-92.3
		L-111.6-92.3z"/>
</g>
</svg>
