<svg id="Layer_1" data-name="Layer 1" xmlns="http://www.w3.org/2000/svg" viewBox="0 0 119 60"><defs><style>.cls-1{fill:#fff;}</style></defs><title>photo_guide-odometer</title><g id="Mobile"><g id="_99-Photo-Grid" data-name="99-Photo-Grid"><g id="Photo-Grid"><g id="Row-1"><g id="Photo-Tile"><g id="Odometer"><g id="Icon---Odometer"><g id="Icon"><path class="cls-1" d="M115,0H4A4,4,0,0,0,0,4V56a4,4,0,0,0,4,4H115a4,4,0,0,0,4-4V4A4,4,0,0,0,115,0ZM7.5,7.55H111.57V52.37H7.5V7.55Z"/><path class="cls-1" d="M85.86,8.4V51.33h25.2V8.4H85.86Zm23.46,29.83a7.49,7.49,0,0,1-7.49,7.5H95.22a7.5,7.5,0,0,1-7.49-7.5V21.5A7.49,7.49,0,0,1,95.22,14h6.61a7.5,7.5,0,0,1,7.49,7.5V38.23Z"/><path class="cls-1" d="M103.54,38.23a1.87,1.87,0,0,1-1.87,1.87H95.07a1.88,1.88,0,0,1-1.87-1.87V21.49a1.87,1.87,0,0,1,1.87-1.87h6.61a1.88,1.88,0,0,1,1.87,1.87V38.23Z"/><path id="Shape" class="cls-1" d="M67.22,21.49h0V38.23a1.88,1.88,0,0,0,1.87,1.87H75.7a1.87,1.87,0,0,0,1.87-1.87V21.49a1.88,1.88,0,0,0-1.87-1.87H69.09a1.87,1.87,0,0,0-1.87,1.87h0Zm-5.62,0A7.49,7.49,0,0,1,69.09,14H75.7a7.5,7.5,0,0,1,7.49,7.5V38.23a7.49,7.49,0,0,1-7.49,7.5H69.09a7.5,7.5,0,0,1-7.49-7.5V21.5h0Z"/><path id="Shape-2" data-name="Shape" class="cls-1" d="M42,21.5h0V38.23a1.88,1.88,0,0,0,1.87,1.87H50.5a1.87,1.87,0,0,0,1.87-1.87V21.5a1.88,1.88,0,0,0-1.87-1.87H43.89A1.87,1.87,0,0,0,42,21.5h0Zm-5.62,0A7.49,7.49,0,0,1,43.89,14H50.5A7.5,7.5,0,0,1,58,21.5V38.23a7.49,7.49,0,0,1-7.49,7.5H43.89a7.5,7.5,0,0,1-7.49-7.5V21.5h0Z"/><path id="Shape-3" data-name="Shape" class="cls-1" d="M16.82,21.5h0V38.23a1.88,1.88,0,0,0,1.87,1.87H25.3a1.87,1.87,0,0,0,1.87-1.87V21.5a1.88,1.88,0,0,0-1.87-1.87H18.69a1.87,1.87,0,0,0-1.87,1.87h0Zm-5.63,0A7.49,7.49,0,0,1,18.69,14H25.3a7.5,7.5,0,0,1,7.49,7.5V38.23a7.49,7.49,0,0,1-7.49,7.5H18.69a7.5,7.5,0,0,1-7.49-7.5V21.5h0Z"/></g></g></g></g></g></g></g></g></svg>