<?xml version="1.0" encoding="UTF-8" standalone="no"?>
<svg width="128px" height="82px" viewBox="0 0 128 82" version="1.1" xmlns="http://www.w3.org/2000/svg" xmlns:xlink="http://www.w3.org/1999/xlink" xmlns:sketch="http://www.bohemiancoding.com/sketch/ns">
    <!-- Generator: Sketch 3.5.2 (25235) - http://www.bohemiancoding.com/sketch -->
    <title>Icon - Damage Driver</title>
    <desc>Created with Sketch.</desc>
    <defs></defs>
    <g id="Mobile" stroke="none" stroke-width="1" fill="none" fill-rule="evenodd" sketch:type="MSPage">
        <g id="99-Photo-Grid" sketch:type="MSArtboardGroup" transform="translate(-654.000000, -1924.000000)" fill="#FFFFFF">
            <g id="Photo-Grid" sketch:type="MSLayerGroup" transform="translate(85.000000, 810.000000)">
                <g id="Row-1" sketch:type="MSShapeGroup">
                    <g id="Photo-Tile-Copy-10" transform="translate(516.000000, 1035.000000)">
                        <g id="Front" transform="translate(-67.000000, -21.000000)">
                            <g id="Icon---Damage-Driver" transform="translate(184.000000, 141.000000) scale(-1, 1) translate(-184.000000, -141.000000) translate(120.000000, 100.000000)">
                                <path d="M43.455687,66 L85.6754021,66 C86.6702907,57.0000991 94.3004373,50 103.565545,50 C112.785725,50 120.386762,56.9323762 121.440747,65.869219 C125.167935,65.1874776 128.000001,61.9217749 128.000002,57.9959366 L128.000004,48.0330895 C128.000006,43.6129117 124.969567,38.1200078 121.231331,35.7651145 C121.231331,35.7651145 116.20369,32.3624966 110.175837,29.2170131 L97.8156836,31.1053674 L98.9328515,46.4251906 L87.6518743,36 L76.3708971,46.4251906 L77.488065,31.1053674 L62.3037486,28.7855443 L69.292695,24 C75.6854929,24 75.032699,24 74.3703932,24 L70.3062304,26.7828559 L80.2344373,28.2996633 L79.5039813,38.3164708 L86.8800049,31.5 L94.2560284,38.3164708 L93.5255725,28.2996633 L103.453779,26.7828559 L95.1668921,21.1085721 L100.17114,12.4006734 L90.5680167,15.3417646 L86.8800049,6 L83.1919931,15.3417646 L73.5888697,12.4006734 L78.5931176,21.1085721 L74.3703931,24 C53.261568,24 22.4903835,24 10.7150078,24 C7.5496945,24 7.14551468,24.91463 7.14551468,24.91463 C3.13498392,26.7687048 -1.31870844e-08,32.0747565 -1.14696123e-08,36.4931448 L-3.10975828e-09,57.9998004 C-1.43439023e-09,62.3098714 3.40742602,65.820078 7.67614406,65.9932998 C8.67407797,56.9966251 16.3027366,50 25.5655446,50 C34.8306519,50 42.4607984,57.0000991 43.455687,66 Z M103.5,82 C110.955844,82 117,75.9558441 117,68.5 C117,61.0441559 110.955844,55 103.5,55 C96.0441559,55 90,61.0441559 90,68.5 C90,75.9558441 96.0441559,82 103.5,82 Z M25.5,82 C32.9558441,82 39,75.9558441 39,68.5 C39,61.0441559 32.9558441,55 25.5,55 C18.0441559,55 12,61.0441559 12,68.5 C12,75.9558441 18.0441559,82 25.5,82 Z" id="Body"></path>
                                <path d="M34,8.5 L34,44.5138855 L34,47.5138855 L40,47.5138855 L40,44.5138855 L40,8.5 L40,5.5 L34,5.5 L34,8.5 L34,8.5 Z" id="Shape"></path>
                                <path d="M75.3024918,9.23271185 L69.3222641,4.75081366 C65.7702315,2.12828271 59.2964458,4.93038066e-32 54.8745113,0 L27.2348197,0 C22.8005017,4.93038066e-32 17.8560243,3.31064118 16.163361,7.39452404 L9.07169015,24.580216 C7.40161692,28.6667264 9.65834912,32 14.0745914,32 L77.4228257,31.9999997 L77.488065,31.1053674 L62.3037486,28.7855443 L66.371838,25.9999997 L14.0745913,26 C13.8395531,26 13.730957,25.9776246 13.7321106,25.9781629 C13.9005869,26.0567801 14.1016162,26.2253881 14.2635815,26.465293 C14.4271403,26.7075584 14.5099285,26.9623144 14.519846,27.1547631 C14.5203026,27.1636235 14.5391696,27.0619642 14.6257722,26.8500558 L21.7096998,9.68321915 L21.7061276,9.69185677 C22.4716752,7.8448228 25.231704,6 27.2348197,6 L54.8745113,6 C58.0148271,6 63.2393583,7.71784944 65.7584531,9.57774345 L71.3236655,13.7486436 L67.3242557,6.78926515 L75.3024918,9.23271185 Z M97.8789237,31.972585 C99.5131313,31.8554841 100.527173,31.3696024 100.875998,30.6378199 L97.8156836,31.1053674 L97.8789237,31.972585 Z M86.8800049,31.5 L79.5039813,38.3164708 L80.2344373,28.2996633 L70.3062304,26.7828559 L78.5931176,21.1085721 L73.5888697,12.4006734 L83.1919931,15.3417646 L86.8800049,6 L90.5680167,15.3417646 L100.17114,12.4006734 L95.1668921,21.1085721 L103.453779,26.7828559 L93.5255725,28.2996633 L94.2560284,38.3164708 L86.8800049,31.5 Z" id="Shape"></path>
                            </g>
                        </g>
                    </g>
                </g>
            </g>
        </g>
    </g>
</svg>