<?xml version="1.0" encoding="utf-8"?>
<!-- Generator: Adobe Illustrator 19.2.1, SVG Export Plug-In . SVG Version: 6.00 Build 0)  -->
<svg version="1.1" id="Layer_1" xmlns:sketch="http://www.bohemiancoding.com/sketch/ns"
	 xmlns="http://www.w3.org/2000/svg" xmlns:xlink="http://www.w3.org/1999/xlink" x="0px" y="0px" viewBox="0 0 128 85"
	 style="enable-background:new 0 0 128 85;" xml:space="preserve">
<style type="text/css">
	.st0{fill:#FFFFFF;}
</style>
<g id="Icon---Title" transform="translate(109.000000, 107.000000)">
	<path class="st0" d="M13-107h-116c-3.3,0-6,2.7-6,6v68c0,3.3,2.7,6,6,6h87v-9h-85v-63H12v63H6v9h7c3.3,0,6-2.7,6-6v-68
		C19-104.3,16.3-107,13-107z"/>
	<path id="Star-1" class="st0" d="M-10.4-44h-2.3v22h16v-22H1.1l-1.7,4.4l-4-2.6l-4,2.6L-10.4-44z M-4.7-27l8,5h-16L-4.7-27z
		 M-4.7-44.9l-3.7,2.4l-1.6-4.1l-4.4-0.3l1.1-4.3l-3.4-2.8l3.4-2.8l-1.1-4.3l4.4-0.3l1.6-4.1l3.7,2.4l3.7-2.4l1.6,4.1L5-61l-1.1,4.3
		L7.3-54l-3.4,2.8L5-46.9l-4.4,0.3L-1-42.5L-4.7-44.9z M-88.7-81h88c1.7,0,3-1.3,3-3c0-1.7-1.3-3-3-3h-88c-1.7,0-3,1.3-3,3
		C-91.7-82.3-90.3-81-88.7-81z M-88.7-67h61c1.7,0,3-1.3,3-3s-1.3-3-3-3h-61c-1.7,0-3,1.3-3,3S-90.3-67-88.7-67z M-88.7-52h61
		c1.7,0,3-1.3,3-3s-1.3-3-3-3h-61c-1.7,0-3,1.3-3,3S-90.3-52-88.7-52z"/>
</g>
</svg>
